<?xml version="1.0" encoding="UTF-8"?>
<svg xmlns="http://www.w3.org/2000/svg" version="1.1" viewBox="0 0 1000 1000">
  <!-- Generator: Adobe Illustrator 29.6.1, SVG Export Plug-In . SVG Version: 2.1.1 Build 9)  -->
  <defs>
    <style>
      .st0 {
        fill: #1b365f;
      }

      .st1 {
        fill: #e6d199;
      }

      .st2 {
        fill: #c3922e;
      }

      .st3 {
        fill: #c2912d;
      }

      .st4 {
        fill: #c79732;
      }
    </style>
  </defs>
  <g id="Layer_1">
    <path class="st0" d="M383.78,739.79c24.92,13.13,39.8-13.85,18.37-23.11-25.22-10.9-58.92,11.02-74.12,30.86-3.78,4.93-6.05,12.44-8.57,15.73-1.42,1.86-1.64,1.45-3.88,1.15-23.29-36.84-43.22-75.86-55.51-117.95-2.95-10.12-15.88-57.86-8.83-63.85,5.49-1.2,10.63,1.89,15.98,1.9,17.87.05,22.52-20.91,7.96-28.98-18.55-10.28-33.95,8.47-46.81,19.33-.65-36.69,39.86-58.94,72-41.71-.49-11.42-11.67-23.38-22.63-25.69-31.27-6.58-49.7,15.42-79.73,14.33-1.16,6.08,5.69,14.96-3.77,15.15-17.95-79.65-1.14-163.19,79.56-198.07-9.2-8.19-25.01-7.64-36.69-6.4-7.43.79-22.78,7.22-28.45,5.59-.87-.25-4.54-10.68-10.71-14.27-7.9-4.6-16.21-.04-15.06-11.28,2.16-20.96,40.59-61.63,62.22-64.52,3.96-.53,11.39,3.48,13.34-2.25,5.58-16.43-22.36-11.96-28.14-16.87-2.19-1.86-4.01-8.68-6.8-12.15-2.65-3.29-6.79-4.02-8.43-7.66,18.55-2.53,34.33,9.24,52.36,11.12,33.79,3.52,62.28-7.65,63.28-45.26,39.61,32.76,96.07-4.26,58.74-49.26,23.1-4.8,50.2,3.4,71.41,12.92,9.53,4.28,17.63,11.41,27.16,13.6v-35.07c0-1.71,11.37-32.67,13.25-31.27,7.4,19.1,11.98,33.21,11.49,54.1-.08,3.51-3.67,11.1.89,12.24,2.33.58,24.64-13.25,29.95-15.51,19.01-8.08,45.4-15.49,65.73-11.01-9.44,17.68-17.98,32.97-1.97,50.29,17.71,19.17,43.78,12.29,62.62-1.03-.29,37.23,28.44,48.34,61.59,45.46,18.81-1.63,35.74-14.35,54.05-11.32.9,1.08-7.93,6.58-9.5,8.47-2.71,3.26-4.6,10.58-6.15,11.86-5.4,4.48-33.52-.83-27.72,16.33,1.94,5.74,9.39,1.74,13.35,2.26,21.92,2.9,59.09,43.3,61.9,64.83,1.5,11.53-10.84,6.16-19.03,13.71-3.54,3.26-5.83,12.59-8.23,13.14-1.51.35-23.15-7.01-30.12-7.5-10.89-.77-24.65-1.05-33.2,6.7,65.22,30.83,90.18,86.63,85.24,157.31-.44,6.26-4.33,34.88-6.58,38.91-1.67,2.99-4.6.26-4.77-1.01-.28-2.2,3.4-8.59,1.9-12.29-30.21,1.3-48.41-20.91-79.73-14.33-12.37,2.6-20.6,14.48-24.54,25.68,11.64-3.07,18.62-6.72,31.36-5.74,22,1.7,45.53,26.55,42.55,49.34l-13.41-14.05c-8.21-5.65-15.8-11.79-26.43-9.83-19.81,3.65-22.49,29.42-2.6,31.43,10.41,1.05,21.46-8.73,21.61,10.44.1,13.68-8.12,41.92-12.33,55.93-12.19,40.5-32.45,77.72-54.05,113.72-3.51,2.95-6.61-8.33-8.67-11.19-15.73-21.91-48.23-47.62-76.54-37.07-23.68,8.82-10.27,35.58,15.11,23.64-.72,5.65.82,10.47,3.79,15.16-5.12,1.95-5.34,18.2-6.54,22.84-15.63,60.42-60.3,97.37-111.95,128.19-46.67-27.01-95.55-66.11-110.32-120.31-3.92-14.4.89-32.41-19.51-30.72,4.31-6.95,6.83-9.83,13.27-15.16ZM489.93,257.38c-.94-9.16,0-20.79,0-30.33,0-4.91-16.58-4.81-20,6.53-2.64,8.74,2.09,18.08-4.59,25.74-1.75,2-5.44,2.8-6.62,4.75-4.04,6.65-4.28,26.1,1.75,32.25,5.3,5.4,34.21,17.59,41.56,16.89s37.49-14.07,40.5-20.3c3.2-6.62,2.62-20.36-.57-26.91-1.85-3.81-8.71-6.79-9.94-10.92-2.47-8.33,2.95-18.23-4.14-26.19-3.77-4.24-14.76-7.84-16.83-1.58-4.53,13.7,5.12,42.24-10.7,51.8-7.67-5.13-9.52-12.91-10.43-21.75ZM400.38,393.36c4.6,3.9,1.7,34.29,1.99,41.84-15.33,12.33-34.47,22.19-44.76,40.54-27.84,49.63,40.92,160.59,102.6,129.13,22.3-11.38,41.78-52.73,28.29-75-8.69-14.36-45.38-51.61-47.76-64.06-2.56-13.42,10.07-50.07,14.56-64.87,2.94-9.7,23.9-52.36,5.47-51.61-12.39.5-32.57,16.78-47.71,17.11-18.05.4-30.66-28.71-34.04-43.65-1.86-8.23-8.19-29.27,6.13-23.21l71.96,41.83c14.43-7.86,12.35-21.08,1.53-31.9-18.6-18.59-47.28-32.9-67.76-49.75-11.22-4.56-17.86-.06-25.13,8.01s-28.09,40.38-31.68,49.83c-12.46,32.79,17.84,59.86,45.94,70.53,4.75,1.8,18.71,3.81,20.36,5.21ZM598.28,438.1l.57-43.37c34.37-9.48,75.06-28.15,69.09-70.84-1.21-8.67-27.06-49.94-33.97-57.01-7.12-7.29-13.74-11.34-24.14-7.1-5.21,2.13-25.1,17.18-31.41,21.65-8.03,5.69-39.37,28.42-42.75,34.96-4.51,8.72-1.82,21.79,7.92,25.04l73.29-42.45c6.7-2.56,7.9,1.53,7.68,7.59-.63,17.54-15.46,60.36-36.92,59.88-12.45-.28-45.54-20.35-52.24-16.26-3.93,2.39-4.17,10.49-3.36,14.77,2.12,11.24,11.87,31.99,15.7,45.02,3.66,12.44,13.41,40.74,12.42,52.12-1.47,16.8-38.59,51.28-48.29,67.43-12.79,21.28,5.24,60.57,24.83,73.48,60.16,39.65,141.65-81.24,101.88-134.1-9.64-12.82-25.71-24.16-40.28-30.79ZM517.41,415.65c-4.92,1.5-26.82,0-34.12,0-.83,0-3.42-4.18-3.89-5.6-3.01-9.19,10.12-47.19,11.94-60.28.73-5.22.58-10.4.46-15.63-2.92.47-3.58,3.53-4.69,5.71-7.82,15.31-30.3,63.84-31.37,78.55-1.28,17.59,5.6,23,22.4,25.14,14.03,1.79,53.4,3.05,63.01-7.95,11.31-12.93-5.15-44.96-11.09-59.14-2.18-5.21-18.02-41.61-20.26-42.33-4.47-1.44-2.13,2-1.93,3.83,2.36,20.92,13.2,48.08,14.17,65.64.19,3.4-1.34,11.05-4.64,12.05ZM457.2,448.24c-7.32,2.39-9.94,5.98-8.91,13.68,1.08,8.13,28.29,43.62,35.17,52.14,6.35,7.87,13.38,22.35,22.66,13.49,8.97-8.56,25.21-31.98,32.75-43.06,5.65-8.3,19.23-23.02,10.69-32.76-6.34-7.23-16.39-2-24.47-1.87-22.62.38-45.36.21-67.89-1.63ZM542.99,730.3c.13-5.56-2.03-10.41-2.05-16.09-.07-23.28,28.06-32.72,31.93-57.34,9.42-59.82-28.61-20.03-53.99-36.07-11.64-7.36-10.32-24.94-18.52-34.51-8.33,7.52-7.06,20.92-13.55,29.81-12.71,17.42-50.06,1.27-57.1,8.5-8.71,8.94-1.45,38.59,4.42,48.73,7.98,13.79,24.66,20.71,25.57,39.05.31,6.17-2.67,11.74-1.98,17.92,1.88,2.12,10.9-7.66,12.18-9.6,4.68-7.07,5.49-25.02,15.21-13.05,7.04,8.68,6.17,42.53,19.76,33.79,2.92-1.88,4.4-36.3,16.34-39.53,6.37,10,8.55,24.56,21.79,28.39Z"/>
  </g>
  <g id="Layer_2">
    <g>
      <path class="st1" d="M310.04,148.38c-.92,2.47-3.61,1.82-5.69,1.9.92-2.48,3.61-1.8,5.69-1.9Z"/>
      <path class="st1" d="M327.1,150.27c-2.08-.08-4.78.58-5.69-1.9,2.08.08,4.77-.57,5.69,1.9Z"/>
      <path class="st1" d="M334.68,148.38c.85.49,3.83-1.02,3.81.95,0,1.71-2.32.83-3.81.95v-1.9Z"/>
      <g>
        <path class="st2" d="M334.68,148.38c-6.52-3.74-12.31-9.08-19.55-11.72l-20.24-5.31c8.66-2.18,14.41-4.67,23.79-3.91,8.51.7,36.5,14.61,38.2-1.1,2.05-18.87-26.65-23.74-40.23-25.32-7.95-.92-20.64,3.21-25.56-3.8,49.3-13.81,101.83-5.99,149.73,9.45-1.69-28.37-24.5-40.89-48.62-49.07-2.93-.99-5.42,1.67-4.44-3.98,19.81-.44,40.2,1.11,58.72,8.55,5.05,2.03,20.68,12.09,23.4,11.87,8.72-.71,14.75-12.27,19.17-18.65l12.41-30.2c1.96,12.95,14.15,46.06,27.98,48.95,4.26.89,22.2-11.48,28.95-13.85,17.02-5.99,37.01-7.05,54.92-6.67.99,5.66-1.51,2.99-4.44,3.98-23.58,8-47.81,20.53-48.62,49.07,47.79-15.61,100.46-23.16,149.72-9.44.52,2.46-3.52,3.03-5.19,3.29-15.77,2.41-61.3-1.23-60.93,24.21.27,18.68,28.15,3.69,36.73,2.81,9.93-1.02,16.4,1.3,25.6,3.81l-20.25,5.31c-7.15,4.06-16.31,6.79-21.44,13.61,16.11-6.02,79.27,1.32,79.67,23.63.18,9.84-59.05-20.62-43.41,9.33,13.55,25.95,74.54-.38,97.62-2.36,25.29-2.17,56.17,1.02,51.86,33.87-3.62-2.24-3.6-6.88-7.48-10.5-10.27-9.57-30.42-3.37-41.8,1.98,23.3,2.51,29.35,29.44,7.61,38.89l.03,2.75c20.7,18.45,35.12,42.27,41.69,69.24l7.54-3.79c-2.19,20.67,18.25,59.45,5.43,76.49-6.01,7.99-10.24-5.78-16.76-8.25,1.86,9.91,7.38,41.01-9.48,34.12,9.05,58.67,2.17,118.64-9.48,176.27,38.7-13.45,42.44,45.48,4.98,43.49-17.24-.91-34.11-12.61-44.75-25.53l-9.51-14.16-3.84,42.61c.2,4.24,30.57-12.32,30.54,5.72-.01,9.3-8.13,9.42-15.3,7.56,9.4,20.98,42.88,25.18,45.36,51.43,1.93,20.35-27.7,35.71-41.61,21.59,19.23-2.57,33.22-24.2,13.18-36.89-22.3-14.12-21.07,26.48-40.68,10.34-15.35-12.63,6.05-14.65,7.71-16.94,5.59-7.71-6.76-26.22-8.62-24.76-3.8,19.5-16.18,40.07-16.93,60.02-.3,8,8.54,36.77,3.46,40.26-10.24,7.04-17.27-19.53-19.98-20.46-17.54-6.06-25.66,35.63-31.35,45.9-7.58,13.68-18.66,16.01-20.49,34.48-.78,7.9,3.79,28.4-6.76,29.44-5.57.55-7.57-3.96-8.31-8.74-3.57-23.2,7.37-53.62-2.85-74.86-4.17-8.66-28.32-29.25-37.94-28.3-4.39.44-6.12,4.49-8.62,5.67-25.38,11.95-38.8-14.81-15.11-23.64,28.31-10.55,60.81,15.16,76.54,37.07,2.05,2.86,5.16,14.14,8.67,11.19,21.61-36,41.86-73.22,54.05-113.72,4.21-14,12.44-42.25,12.33-55.93-.15-19.17-11.2-9.39-21.61-10.44-19.89-2.01-17.21-27.78,2.6-31.43,10.62-1.96,18.22,4.18,26.43,9.83l13.41,14.05c2.98-22.79-20.55-47.64-42.55-49.34-12.74-.99-19.72,2.67-31.36,5.74,3.94-11.19,12.17-23.08,24.54-25.68,31.32-6.58,49.51,15.62,79.73,14.33,1.5,3.7-2.19,10.08-1.9,12.29.16,1.27,3.1,3.99,4.77,1.01,2.25-4.03,6.15-32.65,6.58-38.91,4.93-70.68-20.02-126.48-85.24-157.31,8.55-7.75,22.32-7.47,33.2-6.7,6.96.49,28.6,7.85,30.12,7.5,2.4-.55,4.7-9.88,8.23-13.14,8.19-7.55,20.54-2.17,19.03-13.71-2.81-21.53-39.98-61.93-61.9-64.83-3.96-.52-11.41,3.48-13.35-2.26-5.79-17.16,22.33-11.85,27.72-16.33,1.55-1.29,3.44-8.6,6.15-11.86,1.57-1.89,10.4-7.39,9.5-8.47-18.31-3.03-35.24,9.69-54.05,11.32-33.16,2.88-61.88-8.23-61.59-45.46-18.84,13.33-44.91,20.2-62.62,1.03-16-17.32-7.47-32.61,1.97-50.29-20.33-4.48-46.72,2.93-65.73,11.01-5.31,2.26-27.62,16.09-29.95,15.51-4.57-1.14-.98-8.73-.89-12.24.5-20.89-4.08-35-11.49-54.1-1.87-1.4-13.25,29.56-13.25,31.27v35.07c-9.52-2.19-17.63-9.32-27.16-13.6-21.21-9.52-48.31-17.72-71.41-12.92,37.33,45-19.13,82.03-58.74,49.26-1,37.6-29.5,48.78-63.28,45.26-18.03-1.88-33.81-13.65-52.36-11.12,1.64,3.65,5.78,4.38,8.43,7.66,2.8,3.48,4.61,10.29,6.8,12.15,5.78,4.91,33.71.44,28.14,16.87-1.95,5.73-9.38,1.72-13.34,2.25-21.64,2.89-60.06,43.55-62.22,64.52-1.16,11.25,7.15,6.68,15.06,11.28,6.17,3.6,9.84,14.02,10.71,14.27,5.67,1.63,21.02-4.8,28.45-5.59,11.68-1.24,27.49-1.79,36.69,6.4-80.71,34.88-97.51,118.42-79.56,198.07,9.46-.19,2.61-9.07,3.77-15.15,30.02,1.09,48.45-20.91,79.73-14.33,10.96,2.31,22.14,14.27,22.63,25.69-32.14-17.23-72.65,5.02-72,41.71,12.86-10.86,28.26-29.61,46.81-19.33,14.56,8.07,9.91,29.03-7.96,28.98-5.35-.02-10.49-3.11-15.98-1.9-7.05,5.99,5.87,53.73,8.83,63.85,12.29,42.09,32.22,81.11,55.51,117.95,2.24.3,2.46.71,3.88-1.15,2.51-3.29,4.79-10.81,8.57-15.73,15.21-19.84,48.91-41.75,74.12-30.86,21.43,9.26,6.55,36.24-18.37,23.11-.79-.42-1.84-4.57-5.12-5.42-9.58-2.48-34.74,18.46-39.29,26.41-12.14,21.2,1.87,55.33-3.41,78.1-2.53,10.94-14.74,6.09-14.74,5.16v-29.38c0-12.04-14.47-21.91-19.96-31.22-7.36-12.48-10.09-38.46-22.58-45.64-14.69-8.44-11.74,9.88-19.85,16.35-19.98,15.92-5.97-29.39-6.05-35.95-.24-19.78-13.88-42.14-16.87-61.81-1.75-1.8-15.8,18.17-8.53,24.65,3.53,3.15,23.04,5.91,6.62,17.94-18.86,13.82-21.19-29.03-42.97-9.78-15.73,13.9-1.18,33.93,16.47,35.45-8.74,12.79-36.97,1.1-40.84-11.29-8.85-28.33,28.94-40.84,42.73-57.95,1.7-4.11-7.21-1.98-11.5-5.51-7.56-6.22-1.08-13.85,6.75-14.54,6.76-.6,13.65,2.94,19.93,4.93,2.45.78,2.42,2.05,1.86-1.85-1.96-13.52-4.26-27.14-3.77-40.82-13.48,18.65-33.75,39.49-59.14,37.52-33.2-2.58-26.33-56.69,9.87-43.21-12.37-57.64-18.42-117.63-9.48-176.27-4.45,3.16-11.36.21-11.36-4.74v-27.48l-12.34,9.41c-16.87-22.62,3.72-53.74,2.88-79.54l7.54,3.79c6.09-26.94,21.05-51.17,41.68-69.24l.03-2.75c-22.02-9.28-16.08-36.76,7.61-38.89-10.24-5.12-34.27-11.3-43.09-2.32-2.67,2.72-2.26,9.77-6.19,10.84-6.47-32.21,27.54-35.95,51.86-33.86,26.56,2.28,69.41,23.78,92.1,8.21,5.23-3.59,11.42-13.07,4.99-18.1-9.75-7.62-40.12,12.2-42.81,2.96-2.12-7.26,17.33-18.09,23.33-20.21,9.33-3.31,14.52-3.1,24.05-3.43,2.08-.07,4.77.57,5.69-1.9,3.73-.17,7.64-.14,11.37,0,.91,2.47,3.61,1.81,5.69,1.9,2.44.1,5.16.19,7.58,0,1.49-.12,3.8.76,3.81-.95.02-1.97-2.96-.46-3.81-.95Z"/>
        <path class="st2" d="M619.01,754.94c2.12-.81,14.1.71,15,2.05,2.85,4.27-5.22,11.37-3.63,13.1,25.06,2.45,29.69,38.96,14.23,55-2.2,1.67-16.17,16.59-18.01,15.14-5.85-4.64,6-16.75,7.14-22.22,2.29-11.03,1.86-26.66-12.83-25.17-.97,11.33-5.38,22.55-9.76,32.91-9.13,21.59-33.73,48.94-33.99,70.38-.14,11.87,7.03,32.55-6.73,40.53-3.32,1.93-11.71,4.16-8.34-2.62,17.88-36.04-23.32-32.66-39.67-13.05,13.2,15.97,24.09,31.64,20.75,53.82-13.21-6.06-29.18-45.79-42.64-45.7-14.91.1-29.12,39.21-42.62,45.7-1.6-15.72,1.64-28.69,10.54-41.57,2.58-3.73,11.82-9.17,9.48-13.44-1.38-2.51-16.72-11.49-19.98-12.33-26.4-6.84-25.83,12.29-19.02,31.32-24.45-3.05-14.93-27.32-15.09-42.54-.24-21.73-20.64-41.67-30.12-61.02-6.18-12.62-12.63-28.44-13.54-42.39-16.04.02-16.45,14.25-12.25,26.5,1.83,5.33,12.79,17.84,5.59,20.89-1.73.74-11.43-11.24-15.41-12.03-18.45-18.33-14.56-52.11,12.59-58.1.09-4.3-3.86-5.62-4.01-10.39-.11-3.47,3.24-3.51,4.01-4.75,20.4-1.69,15.58,16.33,19.51,30.72,14.77,54.19,63.65,93.3,110.32,120.31,51.65-30.82,96.32-67.77,111.95-128.19,1.2-4.64,1.42-20.89,6.54-22.84Z"/>
        <path class="st4" d="M145.12,495.25c-2.06,1.98-8.35-.99-10.32-3.87-7-10.24-6.72-46.49,9.39-47.49,11.83-.74,13.18,11.73,7.5,19.06-3.75,4.84-13.71,2.4-15.71,14.78-1.55,9.6,14.06,12.81,9.15,17.51Z"/>
        <path class="st4" d="M855.96,495.25c-4.44-4.24,9.94-8.45,8.69-17.11-2.02-13.97-10.42-8.93-15.33-15.11-8.54-10.77.85-25.27,13.39-17.17,8.82,5.69,8.78,40.43,1.8,47.55-1.83,1.87-7.61,2.75-8.56,1.84Z"/>
        <path class="st3" d="M400.57,393.35c-1.66-1.4-15.61-3.41-20.36-5.21-28.1-10.66-58.4-37.74-45.94-70.53,3.59-9.45,24.64-42.01,31.68-49.83s13.9-12.58,25.13-8.01c20.48,16.85,49.16,31.16,67.76,49.75,10.82,10.82,12.9,24.04-1.53,31.9l-71.96-41.83c-14.32-6.06-7.99,14.98-6.13,23.21,3.38,14.94,15.99,44.05,34.04,43.65,15.14-.34,35.32-16.61,47.71-17.11,18.44-.75-2.52,41.91-5.47,51.61-4.49,14.8-17.12,51.46-14.56,64.87,2.37,12.45,39.06,49.7,47.76,64.06,13.49,22.27-5.99,63.62-28.29,75-61.67,31.46-130.43-79.51-102.6-129.13,10.29-18.35,29.43-28.21,44.76-40.54-.29-7.55,2.61-37.94-1.99-41.84Z"/>
        <path class="st3" d="M598.47,438.09c14.57,6.63,30.64,17.97,40.28,30.79,39.77,52.86-41.72,173.76-101.88,134.1-19.59-12.91-37.61-52.2-24.83-73.48,9.71-16.15,46.82-50.63,48.29-67.43,1-11.38-8.76-39.67-12.42-52.12-3.83-13.03-13.57-33.78-15.7-45.02-.81-4.28-.56-12.38,3.36-14.77,6.7-4.09,39.79,15.98,52.24,16.26,21.46.48,36.29-42.34,36.92-59.88.22-6.06-.97-10.15-7.68-7.59l-73.29,42.45c-9.74-3.24-12.43-16.32-7.92-25.04,3.38-6.53,34.72-29.26,42.75-34.96,6.31-4.47,26.19-19.53,31.41-21.65,10.4-4.24,17.02-.19,24.14,7.1,6.91,7.08,32.76,48.34,33.97,57.01,5.97,42.7-34.72,61.37-69.09,70.84l-.57,43.37Z"/>
        <path class="st3" d="M543.18,730.29c-13.24-3.83-15.42-18.39-21.79-28.39-11.94,3.22-13.42,37.65-16.34,39.53-13.59,8.74-12.72-25.11-19.76-33.79-9.71-11.97-10.52,5.98-15.21,13.05-1.28,1.94-10.3,11.72-12.18,9.6-.7-6.18,2.28-11.76,1.98-17.92-.91-18.34-17.59-25.26-25.57-39.05-5.87-10.14-13.13-39.79-4.42-48.73,7.04-7.23,44.38,8.92,57.1-8.5,6.49-8.89,5.22-22.29,13.55-29.81,8.21,9.57,6.89,27.15,18.52,34.51,25.38,16.05,63.41-23.74,53.99,36.07-3.87,24.61-32,34.06-31.93,57.34.02,5.68,2.18,10.53,2.05,16.09Z"/>
        <path class="st3" d="M457.39,448.23c22.53,1.84,45.27,2,67.89,1.63,8.08-.14,18.14-5.36,24.47,1.87,8.54,9.74-5.05,24.46-10.69,32.76-7.54,11.08-23.78,34.5-32.75,43.06-9.28,8.86-16.3-5.62-22.66-13.49-6.88-8.52-34.09-44.01-35.17-52.14-1.02-7.7,1.6-11.29,8.91-13.68Z"/>
        <path class="st3" d="M490.12,257.37c.91,8.83,2.76,16.61,10.43,21.75,15.82-9.55,6.17-38.1,10.7-51.8,2.07-6.26,13.06-2.66,16.83,1.58,7.09,7.97,1.66,17.86,4.14,26.19,1.22,4.12,8.09,7.1,9.94,10.92,3.18,6.55,3.77,20.29.57,26.91-3.01,6.22-33.03,19.58-40.5,20.3s-36.26-11.5-41.56-16.89c-6.04-6.15-5.79-25.6-1.75-32.25,1.18-1.95,4.88-2.75,6.62-4.75,6.68-7.66,1.95-17,4.59-25.74,3.42-11.34,20-11.45,20-6.53,0,9.54-.94,21.17,0,30.33Z"/>
        <path class="st3" d="M517.6,415.64c3.3-1,4.83-8.65,4.64-12.05-.98-17.56-11.81-44.72-14.17-65.64-.21-1.82-2.55-5.27,1.93-3.83,2.23.72,18.08,37.12,20.26,42.33,5.94,14.19,22.4,46.21,11.09,59.14-9.62,11-48.98,9.73-63.01,7.95-16.8-2.14-23.68-7.55-22.4-25.14,1.07-14.71,23.56-63.24,31.37-78.55,1.12-2.19,1.77-5.24,4.69-5.71.12,5.23.26,10.41-.46,15.63-1.82,13.09-14.95,51.09-11.94,60.28.47,1.42,3.07,5.6,3.89,5.6,7.3,0,29.2,1.5,34.12,0Z"/>
      </g>
    </g>
  </g>
</svg>