<?xml version="1.0" encoding="UTF-8"?>
<svg id="Layer_1" xmlns="http://www.w3.org/2000/svg" version="1.1" xmlns:xlink="http://www.w3.org/1999/xlink" viewBox="0 0 559.15 486.59">
  <!-- Generator: Adobe Illustrator 29.6.1, SVG Export Plug-In . SVG Version: 2.1.1 Build 9)  -->
  <defs>
    <style>
      .st0 {
        fill: #fcfaef;
      }

      .st1 {
        fill: #2e1013;
      }

      .st2 {
        fill: #fcfeff;
      }

      .st3 {
        fill: #fccf59;
      }

      .st4 {
        fill: #fce284;
      }

      .st5 {
        fill: url(#radial-gradient1);
        stroke-width: 3px;
      }

      .st5, .st6 {
        stroke: #a19977;
      }

      .st5, .st6, .st7 {
        stroke-miterlimit: 10;
      }

      .st8 {
        fill: #f9f2cc;
      }

      .st9 {
        fill: #a8802d;
      }

      .st6 {
        fill: url(#radial-gradient);
        stroke-width: 4px;
      }

      .st10 {
        fill: #ebbc1e;
      }

      .st11 {
        fill: #4e1921;
      }

      .st12 {
        fill: #c9972c;
      }

      .st7 {
        fill: #e6e7e8;
        stroke: #000;
        stroke-width: .25px;
      }

      .st13 {
        fill: #784244;
      }

      .st14 {
        fill: #b08f2f;
      }

      .st15 {
        fill: #d0ab2b;
      }

      .st16 {
        fill: #fce6a6;
      }

      .st17 {
        fill: #eda021;
      }

      .st18 {
        fill: #fed839;
      }

      .st19 {
        fill: #dcbd54;
      }
    </style>
    <radialGradient id="radial-gradient" cx="264.69" cy="245" fx="264.69" fy="245" r="233.28" gradientUnits="userSpaceOnUse">
      <stop offset=".09" stop-color="#631f1f"/>
      <stop offset=".28" stop-color="#4b1919"/>
      <stop offset=".62" stop-color="#311414"/>
      <stop offset=".8" stop-color="#221010"/>
      <stop offset="1" stop-color="#130c0d"/>
    </radialGradient>
    <radialGradient id="radial-gradient1" cx="264.69" cy="245" fx="264.69" fy="245" r="226.45" xlink:href="#radial-gradient"/>
  </defs>
  <circle class="st6" cx="264.69" cy="245" r="233.28"/>
  <circle class="st5" cx="264.69" cy="245" r="226.45"/>
  <g id="Generative_Object">
    <g>
      <path class="st7" d="M387.53,187.26c-1.28,1.1-3.23,1.32-5.25.88,3.81-7.77,8.08-15.23,10.9-23.92l.16-.86c-.32,0-.62-.15-.93-.25-2.79-.81-23.11-3.44-24.92-2.97-4.94,1.29-12.32,6.96-17.15,9.55-3.43,1.84-6.63,4.18-10,6.08-.73.41-1.87.53-2.65.96-2.35,1.33-17.62,9.05-18.13,10.09-.66,1.35,1.57,1.92,2.1,2.91-1.57-.64-2.74-2.33-3.07-2.37-.46-.05-3.25,1.87-4.01,2.23-.48.23-.33.17-.61.34-.61.37-4.94,2.21-4.42,3.23,2.29,1.56,10.91,5.28,12.04,7.32-1.94-.8-12.21-7.51-13.22-7.44-3.09.22-16.39,9.11-20.07,11.17-13.53,6.56-26.48,14.3-39.63,21.55-7.64,4.21-15.27,8.48-22.87,12.73-4.31,2.42-10.55,4.28-14.21,7.4-2.06,1.75-1.73,3.4-2.79,6.15-3.29-3.59-.56-6.4-3.76-5.05l.23-2.17,163.18-89.3,30.02,4.97c.33.45.19,1.79.12,2.23-.37,2.56-9.58,23.24-11.05,24.52Z"/>
      <path class="st7" d="M257.71,257.47l19.34-10.77,1.76,2.59,45.5-25.32c.6-2.01,4.23-2.92,3.25-5.89,2.35-1.41,4.63-2.66,7.06-3.93,1.19-.62,4.01-1.48,3.95-3.22,1.16.36,5.96-2.87,7.27-3.54,1.24-.63,2.42-1.38,3.65-2.03,5.5-2.91,10.67-6.45,16.08-9.46,1.11-.62,2.44-.85,3.38-1.37,3.97-2.2,7.95-4.43,11.92-6.64.61.22,1.01.15,1.41.24,2.02.44,3.97.22,5.25-.88l-.23,2.17-161.51,91.43c-.27-1.64-2.83-2.9-3.84-3.47-1.63-4.76,3.17-1.18,4.93-1.73l30.83-18.18Z"/>
      <path class="st7" d="M204.31,247.41c.29-.14.6-.35.73-.41,3.2-1.35.48,1.45,3.76,5.05.1.1.13.31.22.39-.6.2-.81.94-1.03,1.59l-2.41.83c-2.55-2.79.31-4.38-1.28-7.45Z"/>
      <path class="st7" d="M217.54,275.76c1.25.09,3.11.89,4.41,1.63,1.01.57,3.57,1.84,3.84,3.47-.84.16-2.55-.29-3.52-.59-1.04-.33-4.62-1.68-5.17-2.99-.27-.83.45-1.42.43-1.52Z"/>
      <path class="st7" d="M393.19,164.21c-1.88.12-4.05,1.31-5.79,2.2-7.52,3.84-15.26,7.19-22.79,11.16-.61.32-1.43.29-1.68.42l-12.59-8.3c4.83-2.59,12.22-8.26,17.15-9.55,1.81-.47,22.13,2.15,24.92,2.97.31.09.61.24.93.25l-.16.86Z"/>
      <path class="st7" d="M288.31,204.23c3.69-2.07,16.98-10.95,20.07-11.17,1.02-.07,11.28,6.64,13.22,7.44l.43.78c-7.55,4.17-15.28,8.03-22.84,12.21l-12.15-7.52c.18-.1,1.18-1.68,1.27-1.73Z"/>
      <path class="st7" d="M248.67,225.78c.65.45,1.45.49,2.08.88,3.58,2.17,7.18,4.58,10.77,6.76l-21.8,12.65c-2.53-2.01-5.2-3.54-7.78-5.11-.6-.36-2.97-2.08-3.14-1.06-.98-.5-2.02-.98-3-1.39,7.6-4.25,15.23-8.52,22.87-12.73Z"/>
      <path class="st7" d="M208.8,252.05c1.06-2.75.73-4.39,2.79-6.15,3.65-3.11,9.89-4.98,14.21-7.4.98.41,2.02.89,3,1.39,1.57.8,12.19,5.91,9.77,7.82-1.6.71-3.07,1.77-4.62,2.57-1.69.88-12.63,6.49-13.02,7.25-.33.64.77,1.04.77,1.1-.05,1.09-.34,1.79-.38,2.76-.02.69-.09,1.43-.11,2.1-.29-2.31-2.66-1.51-3.17-2.83,1.56,0,1.41-1.63,1.51-1.86.15-.34,1.28-.12.65-1.13-.32-.69-9.54-3.73-11.2-5.24-.08-.08-.12-.29-.22-.39Z"/>
      <path class="st7" d="M337.7,176.73l11.76,8.25-16.45,9.67c-.24.14-.49.27-.73.41-3.83-3.09-6.95-3.83-10.61-5.32-.53-.99-2.76-1.57-2.1-2.91.51-1.04,15.78-8.76,18.13-10.09Z"/>
      <path class="st7" d="M387.4,166.41c1.74-.89,3.9-2.08,5.79-2.2-2.82,8.69-7.09,16.16-10.9,23.92-.4-.09-.8-.02-1.41-.24-3.33-1.21-8.54-5.52-12.06-7.06l-.19-.91,18.77-13.51Z"/>
      <path class="st7" d="M350.35,169.69l12.59,8.3c-3.56,1.87-6.68,4.86-10.49,6.35-1.52-1.26-2.46-2.17-4.09-3.34-2.65-1.89-5.32-3.66-8.01-5.23,3.37-1.9,6.57-4.24,10-6.08Z"/>
      <path class="st7" d="M314.58,189.6l14.02,8.01c-2.19,1.21-4.39,2.45-6.57,3.66l-.43-.78c-1.14-2.05-9.76-5.77-12.04-7.32-.52-1.02,3.81-2.86,4.42-3.23.27-.16.13-.11.61-.34Z"/>
      <path class="st7" d="M314.58,189.6c.76-.37,3.56-2.29,4.01-2.23.34.04,1.5,1.73,3.07,2.37,3.66,1.49,6.78,2.22,10.61,5.32-1.27.71-2.3,1.79-3.43,2.42-.08.05-.16.09-.24.14l-14.02-8.01Z"/>
      <path class="st7" d="M337.7,176.73c.78-.44,1.92-.55,2.65-.96,2.69,1.57,5.36,3.34,8.01,5.23l3.72,3.54c-6.13,3.71-12.83,6.59-19.07,10.11l16.45-9.67-11.76-8.25Z"/>
      <path class="st7" d="M288.31,204.23c-.09.05-1.09,1.63-1.27,1.73-11.16,6.26-25.56,11.65-35.62,19.32-.6.46-.78.14-.66,1.39-.64-.39-1.43-.43-2.08-.88,13.15-7.25,26.1-14.99,39.63-21.55Z"/>
      <path class="st7" d="M263.15,234.04c11.72-7.34,23.94-13.88,36.04-20.57,7.56-4.18,15.29-8.04,22.84-12.21,2.18-1.2,4.38-2.44,6.57-3.66.08-.05.16-.09.24-.14l3.79,2.23-.04.79c-2.08,1.16-4.21,2.2-6.2,3.45-.08.05-.16.09-.24.14l-58.73,32.18c.25.88,1.14.47,1.5.69,3.79,2.32,8.46,3.87,8.87,9.35,16.69-9.25,33.42-18.42,49.78-28.22.98,2.97-2.66,3.89-3.25,5.89l-45.5,25.32-1.76-2.59-19.34,10.77-13.32-7.89c7.51-4.12,14.95-8.46,22.29-12.92-1.05-1.21-2.37-1.9-3.53-2.63Z"/>
      <path class="st7" d="M326.15,204.08c.08-.05.16-.09.24-.14,2.88,1.88,4.39,1.89,3.96,5.96-.31,2.92-2.73,3.57-2.35,6.66.99.67,4.94-3.9,6.62-2.41-2.42,1.27-4.71,2.52-7.06,3.93-16.37,9.8-33.1,18.97-49.78,28.22-.41-5.47-5.08-7.02-8.87-9.35,18.63-11.72,38.57-21.2,57.23-32.88Z"/>
      <path class="st7" d="M216.96,273.01c6.52,4.44,4.17-4.58,4.26-9.52.01-.67.08-1.41.11-2.1,7.38-3.1,14.13-7.45,21.14-11.26.65-.35,1.61-.39,1.92-.56l13.32,7.89-30.83,18.18c-1.76.55-6.56-3.03-4.93,1.73-1.3-.74-3.16-1.53-4.41-1.63-.05-.28-.58-.86-.57-2.74Z"/>
      <path class="st7" d="M364.61,177.57c7.53-3.96,15.27-7.32,22.79-11.16l-18.77,13.51.19.91c3.51,1.55,8.72,5.85,12.06,7.06-3.97,2.2-7.95,4.43-11.92,6.64l-11.94-7.13c.38-.22,1.51-1.86,1.88-2.07,2.97-1.7,6.4-2.6,9.22-4.62l-3.51-3.15Z"/>
      <path class="st7" d="M355.1,187.96c2.81,6.33,7.42,3.21,10.48,7.94-5.41,3.02-10.59,6.55-16.08,9.46l-10.23-8.08c5.28-3.09,10.54-6.31,15.84-9.33Z"/>
      <path class="st7" d="M328.85,197.48c1.13-.63,2.17-1.71,3.43-2.42.24-.14.49-.27.73-.41,6.24-3.51,12.94-6.4,19.07-10.11l-3.72-3.54c1.63,1.16,2.56,2.08,4.09,3.34,1.38,1.14,2.84,1.11,3.63,3.08-.32.18-.65.36-.97.54-5.3,3.02-10.56,6.23-15.84,9.33-.78.45-5.77,1.88-5.7,2.92l12.29,7.19c-1.31.67-6.12,3.9-7.27,3.54-.44-.14-.94-1.2-1-1.23-.77-.36-5.98-2.98-6.24-2.9-.97.29.45,3.46-.98,3.1.44-4.07-1.08-4.08-3.96-5.96,1.99-1.26,4.12-2.29,6.2-3.45l.04-.79-3.79-2.23Z"/>
      <path class="st7" d="M339.26,197.29l10.23,8.08c-1.23.65-2.41,1.4-3.65,2.03l-12.29-7.19c-.07-1.04,4.93-2.47,5.7-2.92Z"/>
      <path class="st7" d="M330.35,209.9c1.43.36.01-2.81.98-3.1.26-.08,5.47,2.54,6.24,2.9.06.03.57,1.09,1,1.23.06,1.73-2.75,2.59-3.95,3.22-1.69-1.49-5.63,3.08-6.62,2.41-.38-3.09,2.03-3.74,2.35-6.66Z"/>
      <path class="st7" d="M355.1,187.96c.32-.18.65-.36.97-.54.47-.27.75.09.95-.02l11.94,7.13c-.94.52-2.27.75-3.38,1.37-3.06-4.73-7.67-1.62-10.48-7.94Z"/>
      <path class="st7" d="M216.9,260.3c-.32-.21-2.79-.62-3.61-1.05-1.99-1.03-3.66-2.14-5.62-3.51.24-.37.18-1.28.32-1.71.21-.65.42-1.39,1.03-1.59,1.67,1.51,10.88,4.55,11.2,5.24.63,1.01-.5.79-.65,1.13-.62.51-1.96.44-1.51,1.86.51,1.31,2.87.52,3.17,2.83-.09,4.93,2.26,13.96-4.26,9.52.02-2.34,2.02-9.83,1.83-10.46-.34-1.09-1.1-1.75-1.9-2.26Z"/>
      <path class="st7" d="M207.99,254.03c-.14.43-.08,1.34-.32,1.71-.1-.07-1.1.2-2.08-.88l2.41-.83Z"/>
      <path class="st7" d="M362.94,177.99c.25-.13,1.07-.1,1.68-.42l3.51,3.15c-2.82,2.02-6.25,2.92-9.22,4.62-.36.21-1.5,1.85-1.88,2.07-.19.11-.48-.25-.95.02-.79-1.97-2.25-1.94-3.63-3.08,3.81-1.49,6.93-4.48,10.49-6.35Z"/>
      <path class="st7" d="M287.04,205.95l12.15,7.52c-12.1,6.69-24.31,13.22-36.04,20.57-.34-.21-1.27-.41-1.62-.63-3.59-2.17-7.19-4.59-10.77-6.76-.12-1.24.06-.93.66-1.39,10.06-7.67,24.46-13.06,35.62-19.32Z"/>
      <path class="st7" d="M261.53,233.41c.35.21,1.28.41,1.62.63,1.17.73,2.48,1.41,3.53,2.63-7.34,4.46-14.78,8.8-22.29,12.92-.31.17-1.27.2-1.92.56l-2.38-1.99,2.22-1.74c-1.12.61-2.6.81-3.73,1.31,2.42-1.91-8.2-7.02-9.77-7.82.17-1.02,2.54.7,3.14,1.06,2.59,1.56,5.25,3.09,7.78,5.11l21.8-12.65Z"/>
      <path class="st7" d="M221.71,258.64l12.24-8.35c1.55-.81,3.02-1.86,4.62-2.57,1.14-.5,2.61-.71,3.73-1.31l-2.22,1.74,2.38,1.99c-7.01,3.8-13.76,8.15-21.14,11.26.03-.97.33-1.67.38-2.76Z"/>
      <path class="st7" d="M233.96,250.29l-12.24,8.35c0-.06-1.1-.46-.77-1.1.39-.76,11.33-6.37,13.02-7.25Z"/>
      <path class="st7" d="M219.57,258.81c-.11.23.05,1.86-1.51,1.86-.44-1.43.89-1.35,1.51-1.86Z"/>
      <path class="st7" d="M326.15,204.08c-18.66,11.68-38.6,21.16-57.23,32.88-.36-.22-1.26.19-1.5-.69l58.73-32.18Z"/>
    </g>
    <g>
      <path class="st4" d="M194.23,287.71c1.17-.11,2.01-1.04,2.92-1.63,1.28-.82,3.16-1.2,3.81-2.89-3.42-2.14-8.58-3.03-11.1-7.34.15-.18.48-1.02.54-1.32.66.11,1.3.08,1.89-.03.9-.18,2.28-.94,3.11-.71.2.05,2.94,2.49,3.87,2.95-.95,1.2,4.43,3.77,4.89,3.91,4.36,1.32,4.49-.97,5.46-5.08.56-2.37-.23-7.13,1.68-7.57.7,4.2.57,7.79.82,11.79-.84.07-1.07.76-1.82,1.02.04.38.95.43,1.04.44l-1.22.68c-1.75.98-3.54,2.16-5.35,2.98-.66.3-1.31.79-1.95,1.08-1.57.73-5.48,2.56-7.73,3.28-.63-.41-.83-1.48-.87-1.56Z"/>
      <path class="st3" d="M212.13,279.79c.08,0,1.53,1.19,1.72,1.08.55-.31-1.46-15.8-.65-17.49,4.77,3.84.72-1.88,4.88-.68l-1.18-2.4c.79.52,1.56,1.17,1.9,2.26.19.62-1.81,8.12-1.83,10.46-.01,1.89.52,2.46.57,2.74.02.1-.7.69-.43,1.52.55,1.31,4.13,2.66,5.17,2.99-.13,1.41-3.87,3.65-4.8,3.69-.42.02-4.11-2.85-5.28-3.18-.22-.06-.59.51-.85.47-.09-.01-1-.07-1.04-.44.76-.26.98-.94,1.82-1.02Z"/>
      <path class="st14" d="M198.85,252.49c0-.1-.59-1.43-.26-1.9.51-.71,4.64-2.67,5.72-3.18,1.59,3.07-1.28,4.66,1.28,7.45.99,1.08,1.98.81,2.08.88,1.96,1.36,3.62,2.47,5.62,3.51.83.43,3.29.84,3.61,1.05l1.18,2.4c-4.16-1.2-.11,4.52-4.88.68-1.74-1.4-3.75-3.6-5.55-4.82-3.01-2.03-6.73-2.05-8.8-6.07Z"/>
      <path class="st19" d="M196.47,257.38c1.49-.98,2.56-.42,2.54-3.45.07,1.01.67,2.52-.05,3.34,2.8,1.41,5.39,2.97,8.15,4.9,2.16,2.06,3.06,4.46.08,3.01-4.47-2.17-8.5-7.15-12.43-4.3-3.38,2.44-1.63,9.08-2.46,13.61-.59.12-1.23.15-1.89.03.13-.6.67-10.12.69-11.35,0-.61-.91-.42-.92-.51-.21-2.5,4.79-4.29,6.3-5.29Z"/>
      <path class="st14" d="M199.01,253.93c-.03-.47-.15-.85-.16-1.44,2.06,4.02,5.79,4.04,8.8,6.07,1.8,1.21,3.81,3.42,5.55,4.82-.81,1.69,1.2,17.18.65,17.49-.19.11-1.64-1.09-1.72-1.08-.26-4-.12-7.59-.82-11.79-.06-.33-.11-3.05-.19-3.21-1.21-1.26-2.87-1.82-4.01-2.62-2.76-1.93-5.35-3.49-8.15-4.9.72-.82.12-2.33.05-3.34Z"/>
      <path class="st19" d="M189.34,262.88c-1.62,2.46-3.83,3.09-6.26,4.5-.09.42,4.19,7.77,4.86,9.03l-1.46.81c-.85-1.57-5.65-9.53-5.27-10.33l8.12-4.01Z"/>
      <path class="st8" d="M186.48,277.23l1.46-.81c.07.13.15.26.22.39,1.97,3.65,4.14,7.24,6.07,10.91.04.08.23,1.15.87,1.56-.58.18-.89.94-1.79.23-2.24-4.11-4.61-8.16-6.83-12.27Z"/>
      <path class="st3" d="M188.16,276.8l.97-.54c2.47,3.48,6.4,5.96,8.02,9.82-.91.59-1.75,1.52-2.92,1.63-1.93-3.67-4.1-7.26-6.07-10.91Z"/>
      <path class="st10" d="M189.86,275.85c2.52,4.32,7.67,5.21,11.1,7.34-.65,1.69-2.54,2.06-3.81,2.89-1.62-3.86-5.54-6.34-8.02-9.82.23-.13.57-.23.73-.41Z"/>
      <path class="st14" d="M207.19,265.19c-.5,1.47.63,2.21-.84,2.51-.38-.58-4.01-2.75-4.7-3-6.59-2.33-6.31,2.79-6.25,9.09-.83-.23-2.21.53-3.11.71.83-4.53-.92-11.17,2.46-13.61,3.94-2.84,7.97,2.13,12.43,4.3Z"/>
      <path class="st3" d="M199.28,276.74c2.66,1.31,5.06,2.71,6.94.73.84-.88,1.17-8.19.14-9.77,1.47-.3.34-1.03.84-2.51,2.98,1.44,2.08-.96-.08-3.01,1.14.79,2.8,1.36,4.01,2.62.09.16.14,2.88.19,3.21-1.91.44-1.12,5.2-1.68,7.57-.97,4.11-1.1,6.4-5.46,5.08-.46-.14-5.84-2.71-4.89-3.91Z"/>
      <g>
        <path d="M206.36,267.7c1.03,1.58.7,8.89-.14,9.77-1.88,1.98-4.27.58-6.94-.73-.93-.46-3.68-2.89-3.87-2.95-.05-6.3-.33-11.42,6.25-9.09.69.24,4.32,2.42,4.7,3Z"/>
        <path class="st8" d="M196.46,271.67c3.49-1.57,4.47-3.05,9.17,1.02-.15,2.41-.14,4.78-2.25,4.83-.8.02-5.94-3.18-6.43-3.82-.63-.82-.37-1.41-.49-2.02Z"/>
        <path class="st15" d="M205.63,272.69c-4.7-4.06-5.68-2.58-9.17-1.02-1.49-7.73,4.16-7.38,9.03-3.24.73,1.73.22,2.89.14,4.26Z"/>
      </g>
      <g>
        <path class="st14" d="M189.34,262.88c.56-.85.01-.93.05-1.05.2-.58,1.38-1.71,1.19-2.45-.46-1.77-8.84-15.56-10.51-18.89-.53-1.06-.82-2.51-1.71-3.64,3.16-.1,5-4.87,2.83-9.23,4.34-.03,1.28,9.11,1.69,11.05.13.63.56.41.57.45,1.78,5.75,6.39,11.94,9.16,17.6l2.57-1.68,1.3,2.34c-1.51,1-6.5,2.79-6.3,5.29,0,.09.93-.1.92.51-.02,1.23-.56,10.75-.69,11.35-.06.3-.39,1.14-.54,1.32s-.5.28-.73.41l-.97.54c-.07-.13-.15-.26-.22-.39-.67-1.25-4.96-8.61-4.86-9.03,2.43-1.41,4.64-2.05,6.26-4.5Z"/>
        <path class="st16" d="M213.67,305.46c1.35,1.19.52-.83,1.49-1.34.59,1.08,2.27,3.78,2.87,4.01-1.29,1.93-.42,6.08,1.44,8.89-.89,2.14,4.13,6.1,5.7,6.52,6.31,1.69,8-6.05,3.87-13.38,1.81-.3-.27-1.61.59-2.37,11.61,17.11-3.9,25.75-12.78,11.96-4.74-7.35-1.8-10.75-3.18-14.3Z"/>
        <path class="st19" d="M167.09,221.19c.85-9.65,14.1-4.49,18.4,7.87,1.04,3,.18,9.11.44,9.96.66,2.09,7.51,12.92,9.24,16.03l-2.57,1.68c-2.77-5.66-7.38-11.85-9.16-17.6,1.08-5.43,1.47-10.72-3.53-16.65s-11.94-5.57-12.23.94c-.73-.41-.64-1.74-.6-2.22Z"/>
        <path class="st12" d="M215.16,304.12c-3.5-6.36-6.92-12.83-10.38-19.22,1.81-.82,3.6-2,5.35-2.98.22.34-.03.57.19.91-.39.23-2.36,1.17-2.11,1.94.32.97,9.51,17.56,10.19,18.31.79.86,4.75.36,5.84,1.34.18.16,2.36,2.89,3.01,3.68.32,1.28,1.1,2.63.3,3.4-2.56-4.88-7.5-6.39-9.52-3.37-.6-.23-2.28-2.94-2.87-4.01Z"/>
        <path class="st3" d="M210.32,282.83c2.46,3.9,7.95,15.42,9.86,17.72.94,1.13,6.1,2.31,9.45,7.24-.87.76,1.22,2.07-.59,2.37-1.16-2.05-1.45-1.65-1.79-2.07-.65-.79-2.83-3.52-3.01-3.68-1.09-.98-5.06-.48-5.84-1.34-.68-.74-9.87-17.34-10.19-18.31-.25-.77,1.72-1.71,2.11-1.94Z"/>
        <path class="st2" d="M173.62,236.94c2.2,1.51,4.18,3.04,6.44,3.56,1.67,3.33,10.06,17.12,10.51,18.89.19.74-.99,1.87-1.19,2.45-3.29-4.57-7.85-15.9-10.95-19.67-1.1-1.34-5.96-2.93-8.74-7.12,1.05-1.24,2.55.95,3.92,1.9Z"/>
        <path class="st0" d="M202.83,285.98c.64-.3,1.28-.78,1.95-1.08,3.46,6.39,6.88,12.86,10.38,19.22-.97.51-.14,2.53-1.49,1.34-2.09-5.37-8.33-13.75-10.84-19.47Z"/>
        <path class="st4" d="M167.09,221.19c-.04.48-.13,1.81.6,2.22-.11,2.4.43,3.5,2.45,5.27-.02-1.57-.27-2.85.55-3.88-.05,3.89-.4,5.95,3.07,9.52-.66.46-.46,1.4-.13,2.62-1.37-.94-2.88-3.13-3.92-1.9-2.96-4.45-4.16-10.43-2.61-13.85Z"/>
        <path class="st9" d="M167.68,223.41c.29-6.51,7.47-6.58,12.23-.94,5,5.94,4.61,11.22,3.53,16.65-.01-.04-.44.18-.57-.45-.41-1.93,2.65-11.08-1.69-11.05-2.98-5.99-8.19-5.73-10.5-2.83-.82,1.03-.57,2.31-.55,3.88-2.03-1.76-2.56-2.87-2.45-5.27Z"/>
        <path class="st3" d="M173.75,234.32c1.01,1.04,3.59,2.57,4.6,2.54.89,1.13,1.17,2.58,1.71,3.64-2.26-.51-4.24-2.04-6.44-3.56-.33-1.22-.52-2.17.13-2.62Z"/>
        <path class="st17" d="M219.47,317.02c4.98,7.49,12.61,3.1,8.08-5.52.8-.78.02-2.12-.3-3.4.34.42.63.01,1.79,2.07,4.13,7.33,2.44,15.07-3.87,13.38-1.57-.42-6.59-4.38-5.7-6.52Z"/>
        <g>
          <path d="M170.69,224.8c2.31-2.9,7.52-3.16,10.5,2.83,2.17,4.36.33,9.12-2.83,9.23-1.01.03-3.59-1.5-4.6-2.54-3.47-3.57-3.11-5.63-3.07-9.52Z"/>
          <path class="st12" d="M175.69,224.06c4.12.74,6.6,7.52,4.45,10.28-.62-2.16-1.62-4.13-3.25-5.84-1.52-1.6-2.92-1.97-4.19-1.24.37-3.34.77-2.14,3-3.2Z"/>
          <path class="st2" d="M176.02,231.52c.22-.92.95-1.62.86-3.03,1.63,1.71,2.63,3.68,3.25,5.84-1.2,1.54-2.6,1.74-4.73.08.61-.54.34-1.72.62-2.9Z"/>
          <path class="st4" d="M175.69,224.06c-2.23,1.06-2.62-.14-3,3.2-.22,1.99-.31,2.56,1.28,5.16l2.05-.89c-.27,1.17-.01,2.36-.62,2.9-5.28-4.1-4.86-11.29.29-10.36Z"/>
          <path class="st3" d="M172.69,227.26c1.27-.73,2.67-.36,4.19,1.24.08,1.42-.65,2.11-.86,3.03l-2.05.89c-1.59-2.6-1.5-3.16-1.28-5.16Z"/>
        </g>
        <g>
          <path d="M219.47,317.02c-1.87-2.81-2.73-6.96-1.44-8.89,2.02-3.02,6.96-1.51,9.52,3.37,4.53,8.62-3.11,13.01-8.08,5.52Z"/>
          <path class="st12" d="M227.45,318.19c-3.65-5.76-3.67-7.08-8.64-6.93.75-7.78,11.6.61,8.64,6.93Z"/>
          <g>
            <path class="st16" d="M218.82,311.26c4.96-.15,4.98,1.16,8.64,6.93-2.11,4.49-9.2-1.13-8.64-6.93Z"/>
            <path class="st3" d="M220.14,315.37c-1.06-1.89.09-3.76,1.08-2.64,2.56,3.94.87,6.12-1.08,2.64Z"/>
          </g>
        </g>
      </g>
    </g>
    <g>
      <path class="st13" d="M151.93,296.46l7.06-3.93c3.37,2.59,6.92,4.77,10.26,7.55-2.51,1.41-5.25,2.46-7.76,3.81-3.22-2.32-6.38-4.96-9.56-7.43Z"/>
      <path class="st13" d="M177.97,281.97c3.41,2.77,6.71,5.51,10.26,7.55-1.18,1.12-7.13,4.29-8.46,3.69-1.24-.56-7.35-5.87-9.1-7.18l7.3-4.06Z"/>
      <path class="st13" d="M167.75,287.65l.73-.41c3.23,2.59,6.53,4.9,9.8,7.3-2.48,1.76-4.96,2.74-7.54,4.2l-9.45-7.24c-.04-.53,5.59-3.37,6.46-3.85Z"/>
      <path class="st11" d="M170.71,275.8c2.34,2.3,4.82,4.19,7.26,6.16l-7.3,4.06c-2.47-1.86-5.09-3.4-7.53-5.5,2.56-1.41,4.96-3.31,7.57-4.72Z"/>
      <path class="st11" d="M151.49,286.5c2.55,1.71,5.02,4.13,7.5,6.03l-7.06,3.93c-2.29-1.78-4.82-2.89-7.04-5.77,2.22-1.29,4.33-2.9,6.6-4.18Z"/>
      <path class="st11" d="M153.68,285.28c2.5-1.41,5.03-2.81,7.54-4.2,2.39,2.11,4.82,4.21,7.26,6.16l-.73.41c-.14-1.39-.58-.66-1.04-.44-1.19.58-5.32,3.69-5.87,3.78-.32.05-6.57-4.38-7.16-5.71Z"/>
      <path class="st11" d="M172.66,274.72c3.07-1.63,5.23-3.05,8.46-3.69,1.43,2.25,2.38,4.86,3.66,7.15l-4.41,2.96c-2.59-2.01-5.3-3.88-7.72-6.42Z"/>
      <path class="st1" d="M153.68,285.28c.59,1.32,6.84,5.76,7.16,5.71.54-.09,4.67-3.2,5.87-3.78.46-.22.9-.95,1.04.44-.87.48-6.5,3.32-6.46,3.85l9.45,7.24c-.39.22-1.11,1.13-1.49,1.34-3.34-2.78-6.89-4.97-10.26-7.55-2.48-1.9-4.95-4.32-7.5-6.03.73-.41,1.46-.81,2.19-1.22Z"/>
      <path class="st1" d="M142.71,291.9c2.71,1.85,6.41,6,8.83,7.84-.24,2.24.5,5.01.58,7.33,0,.06-.4.12-.4.99,0,.2,2.14,1.29-.82,2.24-1.89,0,.24-8.97-2.49-11.62-.6-.59-1-.14-1.06-.18-2.36-1.74-5.6-3.83-8.01-5.23,1.11-.43,2.37-.78,3.38-1.37Z"/>
      <path class="st1" d="M144.9,290.68c2.21,2.89,4.75,4,7.04,5.77,3.18,2.47,6.34,5.11,9.56,7.43-.57.31-1.13.65-1.7.95-2.36-1.87-6.1-3.45-8.26-5.1-2.41-1.84-6.12-5.99-8.83-7.84.73-.43,1.48-.8,2.19-1.22Z"/>
      <path class="st1" d="M172.66,274.72c2.42,2.53,5.13,4.41,7.72,6.42,2.35,1.83,5.84,4.99,8.2,6.15-.43.37.65,1.32.5,1.76-.06.18-.64.27-.85.47-3.55-2.04-6.85-4.79-10.26-7.55-2.44-1.98-4.92-3.87-7.26-6.16.65-.35,1.28-.73,1.95-1.08Z"/>
      <path class="st1" d="M163.14,280.52c2.44,2.11,5.05,3.65,7.53,5.5,1.75,1.31,7.85,6.62,9.1,7.18.08,1.84-1.14,1.09-1.49,1.34-3.27-2.4-6.56-4.71-9.8-7.3-2.44-1.95-4.87-4.05-7.26-6.16.61-.34,1.7-.44,1.92-.56Z"/>
      <path class="st13" d="M152.11,307.07c-.08-2.32-.81-5.09-.58-7.33,2.15,1.64,5.89,3.23,8.26,5.1-1.74.9-5.39,5.78-7.68,2.23Z"/>
      <path class="st13" d="M184.78,278.17c1.87,3.34,4.27,6.45,5.64,10.13-.08,0-1.38-.79-1.84-1.02-2.36-1.16-5.85-4.32-8.2-6.15l4.41-2.96Z"/>
      <path class="st11" d="M184.78,278.17c-1.28-2.28-2.23-4.89-3.66-7.15.76-.15,0-1.07.17-1.12.2.16.6.25.69.38.61.87,9.12,15.87,9.32,16.75.17.73-.45,1.23-.89,1.26-1.36-3.67-3.76-6.79-5.64-10.13Z"/>
      <g>
        <path class="st4" d="M139.33,293.27c2.41,1.4,5.65,3.49,8.01,5.23.54.59,1.05.45,1.46,1.48.5,1.26,1.09,20.75.58,21.36-.24.29-5.96,3.45-6.33,3.52-1.33.26-15.12-10.34-17.61-11.88,0-2.77-1.55-19.73-.85-20.7.24-.33,6.4-3.77,6.81-3.79.36-.02,6.8,4.13,7.92,4.78Z"/>
        <path class="st14" d="M146.48,301.54c-.51.62-1.61.31-1.95,1.08-.54-1.01-10.03-6.87-10.65-6.83-6.77.49-3.65,8.32-4.62,14.31-.12.75-.1,1.28-.57,1.85-.78-.87-1.25-.92-1.65-2.4-.23-.83-1-15.27-.62-15.72.22-.27,5.7-2.84,6.06-2.86,1.22-.07,12.82,8.77,14.41,9.58-.17.28-.23.78-.4.99Z"/>
        <path class="st10" d="M128.69,311.95c.47-.56.44-1.1.57-1.85,1.51,1.2,9.74,7.41,10.62,7.35,6.42-.47,5.54-7.61,4.65-14.83.33-.78,1.44-.47,1.95-1.08,1.11,1.05,1.04,2.05,1.14,3.19.13,1.43.53,13.43.24,13.89-.19.31-5.48,3.25-5.84,3.25-.63,0-12.5-9-13.33-9.92Z"/>
        <g>
          <path d="M144.53,302.62c.89,7.22,1.77,14.37-4.65,14.83-.89.06-9.11-6.15-10.62-7.35.98-5.99-2.14-13.82,4.62-14.31.62-.04,10.11,5.81,10.65,6.83Z"/>
          <path class="st12" d="M140.58,301.25c3.47,3.15,1.41,2.02,1.12,6.01-3.49-4.29-7.97-2.22-8.14,1.98-1.29-.12-1.83.16-2.87.58-1.35-9.63.44-17.15,9.89-8.57Z"/>
          <path class="st2" d="M130.69,309.81c1.03-.41,1.57-.7,2.87-.58.1,0,.97,1.1,1.48,1.22.36.09,1.31-1.02,1.7-.95,1.24.22.23,2.76,4.97,2.34.72-.06,1.1.32,1.65.1-.05.23.2,1.79.02,2.03-3.28,4.21-8.03-.75-12.68-4.17Z"/>
          <path class="st16" d="M141.69,307.26c.29-3.99,2.35-2.86-1.12-6.01,3.78.12,3.27,8.53,2.77,10.7-.55.22-.93-.17-1.65-.1.61-1.03-.07-3.67,0-4.59Z"/>
          <path class="st18" d="M141.69,307.26c-.07.92.62,3.56,0,4.59-4.73.43-3.73-2.12-4.97-2.34-.39-.07-1.34,1.03-1.7.95-.5-.12-1.38-1.21-1.48-1.22.17-4.2,4.65-6.27,8.14-1.98Z"/>
        </g>
      </g>
    </g>
  </g>
</svg>