<?xml version="1.0" encoding="UTF-8"?>
<svg id="Layer_1" xmlns="http://www.w3.org/2000/svg" version="1.1" viewBox="0 0 190.85 192.76">
  <!-- Generator: Adobe Illustrator 29.6.1, SVG Export Plug-In . SVG Version: 2.1.1 Build 9)  -->
  <defs>
    <style>
      .st0 {
        fill: #f3bb2d;
      }

      .st1 {
        fill: #eaad22;
      }

      .st2 {
        fill: #f7c034;
      }

      .st3 {
        fill: #f9c53b;
      }

      .st4 {
        fill: #ffcc39;
      }

      .st5 {
        fill: #f2cb6e;
      }

      .st6 {
        fill: #fcd848;
      }

      .st7 {
        fill: #edb023;
      }

      .st8 {
        fill: #fedf4b;
      }

      .st9 {
        fill: #ecaf22;
      }

      .st10 {
        fill: #f5bd2e;
      }

      .st11 {
        fill: #eeb123;
      }

      .st12 {
        fill: #eaac22;
      }

      .st13 {
        fill: #fedf5a;
      }

      .st14 {
        fill: #e6b12a;
      }

      .st15 {
        fill: #fee15c;
      }

      .st16 {
        fill: #e9ad22;
      }

      .st17 {
        fill: #f0b930;
      }

      .st18 {
        fill: #efb42b;
      }

      .st19 {
        fill: #f7bf34;
      }

      .st20 {
        fill: #f8c339;
      }

      .st21 {
        fill: #f7be32;
      }

      .st22 {
        fill: #f4bc2d;
      }

      .st23 {
        fill: #feda44;
      }

      .st24 {
        fill: #eeb42b;
      }

      .st25 {
        fill: #fcd847;
      }
    </style>
  </defs>
  <path class="st12" d="M61.89,152.48c-5.22,5.47-9.6,13.01-16.47,16.48-13.53-9.45-21.69-18.96-30.2-32.95l16.47-15.56c6.76,11.11,19.61,24.53,30.2,32.04Z"/>
  <path class="st25" d="M144.25,22.5c16.18,11.69,30.19,28.11,35.69,47.6,3.49,12.38,5.3,25.57,4.58,38.44-.87,15.59-8.02,30.39-19.22,41.19-11.64,11.23-27.68,18.24-43.93,19.22-12.6.76-25.69-1.21-37.52-5.49-1.52-.55-6.22-1.74-6.88-2.73s-.62-3.7-1.36-5.51c35.87,18.35,84.43,10.38,100.53-29.88,12.66-31.64-.64-68.28-24.1-90.97-3.51-3.4-8.56-5.99-11.46-10.05.95-.48,1.86-2.12,3.66-1.83Z"/>
  <path class="st6" d="M138.76,18.84l-.92,4.58c-4.04-4.72-23.69-11.8-30.19-13.28C44.51-4.29,5,53.16,30.77,109.46c-1.52.31-2.99.92-4.58.92-.02-1.87-1.46-3.16-1.83-4.58-2.44-9.37-4.61-16.73-5.49-26.55-1.1-12.31.23-23.18,5.05-34.77,1.89-4.54,4.89-8.36,6.85-12.83,1.56-1.43,2.57-2.93,4.58-4.58,12.8-10.53,27.46-19.56,43.93-22.88,22.82-2.79,40.31,2.52,59.48,14.65Z"/>
  <path class="st1" d="M121.37,168.96c-2.97,6.86-11.67,10.54-14.64,17.39-13.94,1.22-24.64-1.07-37.52-5.49,3.18-6.87,11.54-10.54,14.64-17.39,11.83,4.28,24.92,6.25,37.52,5.49Z"/>
  <path class="st22" d="M61.89,152.48c1.73,1.23,9.94,6.23,11.44,6.42,2.69.34.9-4.18,1.38-5.51,1.13.55.67,1.22.92,1.83.73,1.81.73,4.57,1.36,5.51s5.36,2.18,6.88,2.73c-3.11,6.86-11.47,10.52-14.64,17.39-9.83-3.38-15.22-5.91-23.79-11.9,6.88-3.46,11.26-11,16.47-16.48Z"/>
  <path class="st16" d="M18.88,79.25c.88,9.82,3.05,17.18,5.49,26.55-1.81-.02-2.54,1.24-3.67,2.27-2.12,1.93-9.96,9.17-11.02,10.96s-1.06,3.14-.87,5.08c-4.65-10.8-6.24-18.38-6.41-30.21,6.43-3.56,9.19-13.13,16.47-14.65Z"/>
  <path class="st0" d="M18.88,79.25c-7.28,1.51-10.05,11.08-16.47,14.65-.04-2.97-.54-8.81.19-11.26.5-1.7,3.18-2.82,3.42-3.96.33-1.55-2.31-2.03-2.28-4.05.24-15.22,16.5-33.29,27.04-42.97-1.95,4.47-4.96,8.29-6.85,12.83-4.82,11.58-6.15,22.46-5.05,34.77Z"/>
  <path class="st17" d="M106.73,186.35c2.97-6.86,11.67-10.54,14.64-17.39,16.25-.98,32.28-8,43.93-19.22-12.36,18.66-35.87,34.62-58.57,36.61Z"/>
  <path class="st10" d="M24.37,105.8c.37,1.41,1.81,2.71,1.83,4.58.03,3.61-3.81,7.24-3.65,10.98,2.64-2.06,3.79-5.14,6.4-7.32.47,2.23,1.58,4.49,2.75,6.41l-16.47,15.56c-2.73-4.49-4.28-6.96-6.41-11.9-.2-1.94-.17-3.34.87-5.08s8.9-9.03,11.02-10.96c1.14-1.03,1.87-2.29,3.67-2.27Z"/>
  <path class="st5" d="M79.27,4.19c-16.47,3.33-31.13,12.35-43.93,22.88,10.78-13.94,26.83-20.79,43.93-22.88Z"/>
  <path class="st14" d="M144.25,22.5c-1.8-.29-2.71,1.35-3.66,1.83-4.26,2.14-2.16-.23-2.75-.92l.92-4.58c1.87,1.18,3.7,2.37,5.49,3.66Z"/>
  <path class="st23" d="M32.6,112.21c8.05,15.78,20.59,29.58,35.76,38.82,2.63,1.6,4.65,1.55,6.33,2.37-.47,1.32,1.32,5.85-1.38,5.51-1.49-.19-9.7-5.2-11.44-6.42-10.59-7.5-23.44-20.92-30.2-32.04-1.17-1.92-2.28-4.18-2.75-6.41,1.19-1,1.88-1.82,3.66-1.83Z"/>
  <path class="st4" d="M137.84,23.42c.58.68-1.52,3.06,2.75.92,2.91,4.06,7.95,6.65,11.46,10.05,23.45,22.69,36.75,59.33,24.1,90.97-16.11,40.26-64.66,48.23-100.53,29.88-.25-.61.21-1.28-.92-1.83-1.69-.82-3.7-.77-6.33-2.37-15.18-9.25-27.71-23.05-35.76-38.82l5.49-3.65c-2.47-.12-4.93.42-7.32.91C5,53.16,44.51-4.29,107.65,10.14c6.5,1.49,26.15,8.57,30.19,13.28ZM82.01,12.43c-.1-.09-2.63-.08-2.74,0-.28.25,1.05,6.95,1.33,7.36,1.12,1.6,9.51,1.85,8.73-1.86-9.38,2.2-6.08-4.31-7.32-5.5ZM92.88,13.47c-.99-.65-11.03-.5-8.11,1.71,1.32.27,5.88-.41,6.36.05s-.03,7.37,2.32,6.35-.21-7.88-.56-8.11ZM116.79,16.1c-3.43-.93-3.34,6.96-2.61,8.1.38.59,6.72,2.27,8.1,1.96.75-3.16-3.88-1.85-5.07-3.62-1.01-1.51-.2-4.6-.43-6.44ZM126.73,20.8c-.23-.35-6.77-2.4-7.19-1.95-1.44,4.18,3.6,2.47,4.45,3.78.68,1.05-.2,4.7.12,6.29h2.74c-.37-1.88.63-6.94-.12-8.12ZM64.63,27.99c1.8-1.93-4.81-6.15-6.1-6.28-2.4-.23-8.91,8.4-3.64,6.15,1.37-.58,2.03-2.56,3.77-2.61,1.95-.06,5.13,3.64,5.97,2.73ZM69.21,30.74c-16.79,7.7-24.86,19.27-27.45,37.53-4.48,31.53,15.73,65.34,45.77,76.42,21.2,7.82,56.02,4.92,65.88-18.75,3.88-2.75,6.27-8.59,7.58-13.02,15.03-50.96-42.41-104.82-91.77-82.18ZM60.05,28c-1.79-1.64-5.29,3.51-5.94,3.51-.39,0-5.85-5.23-5.95-1.24,1.4,1.02,5.18,4.29,6.72,3.99.91-.18,6.11-5.4,5.16-6.27ZM146.99,34.41c-2.28-2.15-5.53,5.72-5.34,6.73.33,1.75,5.83,5.28,7.17,4.24-.72-1.95-3.45-2.77-3.69-5.06-.21-1.99,2.55-5.25,1.85-5.91ZM149.74,49.96c6.67-2.46,5.18-10.58-1.83-10.97-.48,2.57,3.16,3.27,3.52,5.16.28,1.47-2.39,3.77-1.69,5.81ZM42.66,49.96c.67-3.56-6.64-3.39-8.27-2.32-1.46.96-1.94,5.99-1.79,7.81,3.16.75,1.85-3.88,3.62-5.07,1.51-1.01,4.6-.2,6.44-.43ZM39.92,52.71c-3.05-2.82-2.99,4.85-3.78,5.36-1.66,1.06-7.11-1.69-6.27,1.95,1.88-.38,6.92.64,8.1-.12.35-.23,2.4-6.78,1.95-7.19ZM171.7,69.19c-.83-.73-6.85,2.39-7.16,2.91-1,1.68,1.68,10.46,4.41,8.07.7-.62-1.95-4.38-1.66-5.83.43-2.14,4.81-2.25,4.41-5.14ZM172.53,74.76c-5.01-3.21-.72,4.86-.94,5.78-.38,1.58-5.02,2.25-4.46,5.12,2.88,0,7.52-2.7,7.18-5.71-.06-.56-1.54-5.05-1.78-5.19ZM35.34,76.51c-.33-.37-6.27,1.73-6.87,2.72-.87,1.43-.41,7.39.48,8.26,2.79,2.69,1.42-6.64,1.92-7.22.85-.98,5.88.47,4.47-3.76ZM35.34,82c-2.37-2.5-1.65,5.41-2.26,6.42s-6.4,2.13-4.13,4.56c.26.28,6.96-2.56,7.17-2.88.56-.89-.43-7.74-.78-8.1ZM175.36,112.22c-.48-.46-6.17-1.22-7.34-.5s-3.3,7.16-2.72,7.81c1.95,2.19,3.49-5.18,3.78-5.37.62-.41,9.01.64,6.29-1.94ZM47.24,112.21c-1.07-1.15-6.13,4.21-5.13,7.33.16.51,2.58,4.51,2.84,4.59,5.34,1.56-.46-4.54-.47-5.99,0-1.58,4.22-4.35,2.76-5.93ZM172.61,116.79c-2.01-2.35-3.41,5.26-3.69,5.47-1.32.97-7.77-3.79-6.38,1.84,1.91-.65,7.06,1.63,8.16.84.44-.31,2.46-7.52,1.91-8.16ZM47.25,129.59c1.1,1.19,6.25-5.62,6.33-6.08.19-1.06-4.53-7.38-6.33-5.81-1.12.97,2.69,3.29,2.73,5.01.05,1.89-3.94,5.57-2.73,6.88ZM72.05,145.97c-.74-1.02,2.1-7.28-.55-7.2-1.16.04-2.87,6.64-1.87,8.22.9,1.42,8.32,4.35,6.9,1.38-.79-1.64-4.16-1.98-4.47-2.4ZM154.31,146.99c-1.04-6.74-6.97-7.77-10.97-2.27.45,4.19,4.46-1.56,5.82-1.33,1.45.25,2.8,4.14,5.15,3.6ZM81.1,153.4c.56-.59,1.28-6.94.48-8.25-.62-1-6.12-3.41-6.87-2.73-1.92,1.74,4.26,3.54,4.43,3.8.45.71-.68,9.97,1.96,7.18ZM149.74,146.99c-1.54-1.45-4.26,2.44-5.16,2.61-2.01.39-4.46-3.91-6.73-2.16,1.59,1.14,3.97,5.06,5.93,5.05,1.42,0,7.24-4.29,5.96-5.5ZM105.79,151.58c-.11-.09-2.61-.09-2.71,0-.29.25,1.54,6.62,2.25,7.35,1.68,1.72,8.34,1.69,7.81-1.86-9.14,2.27-5.94-4.35-7.34-5.49ZM116.67,151.7c-.89-.57-9.07-.64-8.1,2.61,1.57.33,5.25-.55,6.28.12.29.19,1.86,7.6,3.78,5.37.56-.66-1.44-7.77-1.95-8.1Z"/>
  <path class="st9" d="M30.77,109.46c2.39-.48,4.85-1.03,7.32-.91l-5.49,3.65c-1.78,0-2.47.83-3.66,1.83-2.6,2.18-3.76,5.26-6.4,7.32-.15-3.75,3.68-7.37,3.65-10.98,1.59,0,3.06-.61,4.58-.92Z"/>
  <path class="st3" d="M153.4,125.94c-9.86,23.67-44.68,26.58-65.88,18.75-30.04-11.08-50.25-44.89-45.77-76.42,4.26.89,3.98-5.16,5.45-7.82,3.29-5.99,9.4-13.96,14.74-18.2,2.83-2.25,3.99-.6,5.43-4.18,27.12-7.66,52.79,1.02,71.41,21.49,15.3,16.82,23.63,44.74,14.62,66.39ZM77.44,54.54c-2.63,1.42-6.34,3.07-8.24,5.49-.5-1.83-2.85-.08-3.61.52-5.13,4.05-6.34,8.01-7.38,14.13-4.21,24.95,12.37,47.49,35.45,55.62,8.02,2.82,12.85,3.37,21.29,2.05,6.15-.96,21.46-6.04,24.29-11.95.72-1.5-.44-2.1-.49-2.7-.37-4.28-4.43-27.64-6.38-29.77-2.18-2.38-5.38-.66-7.65-.78-6.91-.36-13.81-1.53-20.74-1.49-.04-.3-1.61-1.53-.86-2.67.22-.33,3.83-1.5,4.73-1.97,1-.53.62-1.73.71-1.77.25-.13,2.11-.04,2.75,0,.15.01.77.95,2.12.88,7.25-.38,15.44-4.9,14.42-13.26-.32-2.64-1.91-.82-2.81-1.35-.13-.08-.26-1.74-1.31-2.77-12.8-12.49-29.97-17.03-46.28-8.22Z"/>
  <path class="st24" d="M153.4,125.94c9.01-21.64.68-49.57-14.62-66.39-18.62-20.47-44.29-29.15-71.41-21.49.91-2.27,1.98-4.79,1.83-7.32,49.36-22.64,106.81,31.23,91.77,82.18-1.31,4.43-3.7,10.27-7.58,13.02Z"/>
  <path class="st21" d="M69.21,30.74c.15,2.53-.92,5.06-1.83,7.32-1.44,3.58-2.6,1.93-5.43,4.18-5.34,4.25-11.45,12.21-14.74,18.2-1.46,2.66-1.19,8.71-5.45,7.82,2.59-18.26,10.67-29.83,27.45-37.53Z"/>
  <path class="st11" d="M82.01,12.43c1.24,1.19-2.06,7.7,7.32,5.5.78,3.72-7.61,3.46-8.73,1.86-.28-.41-1.61-7.1-1.33-7.36.1-.09,2.64-.1,2.74,0Z"/>
  <path class="st7" d="M64.63,27.99c-.84.9-4.02-2.79-5.97-2.73-1.74.05-2.4,2.02-3.77,2.61-5.27,2.25,1.24-6.38,3.64-6.15,1.29.12,7.9,4.35,6.1,6.28Z"/>
  <path class="st7" d="M42.66,49.96c-1.84.22-4.93-.58-6.44.43-1.77,1.18-.47,5.82-3.62,5.07-.15-1.81.33-6.85,1.79-7.81,1.63-1.07,8.93-1.24,8.27,2.32Z"/>
  <path class="st7" d="M172.61,116.79c.54.64-1.48,7.84-1.91,8.16-1.1.79-6.24-1.49-8.16-.84-1.39-5.64,5.06-.87,6.38-1.84.28-.21,1.68-7.82,3.69-5.47Z"/>
  <path class="st7" d="M126.73,20.8c.75,1.17-.25,6.23.12,8.12h-2.74c-.33-1.58.55-5.24-.12-6.29-.85-1.31-5.89.4-4.45-3.78.42-.44,6.96,1.6,7.19,1.95Z"/>
  <path class="st7" d="M171.7,69.19c.4,2.89-3.98,3-4.41,5.14-.29,1.45,2.37,5.22,1.66,5.83-2.73,2.39-5.41-6.38-4.41-8.07.3-.51,6.32-3.64,7.16-2.91Z"/>
  <path class="st11" d="M47.25,129.59c-1.21-1.31,2.78-4.99,2.73-6.88-.04-1.72-3.85-4.04-2.73-5.01,1.8-1.57,6.51,4.75,6.33,5.81-.08.46-5.23,7.27-6.33,6.08Z"/>
  <path class="st7" d="M116.67,151.7c.51.33,2.52,7.44,1.95,8.1-1.92,2.23-3.49-5.18-3.78-5.37-1.03-.67-4.72.21-6.28-.12-.96-3.25,7.21-3.18,8.1-2.61Z"/>
  <path class="st7" d="M116.79,16.1c.22,1.84-.58,4.93.43,6.44,1.18,1.77,5.82.47,5.07,3.62-1.38.32-7.72-1.36-8.1-1.96-.73-1.14-.82-9.03,2.61-8.1Z"/>
  <path class="st7" d="M35.34,76.51c1.41,4.24-3.62,2.78-4.47,3.76-.5.58.87,9.91-1.92,7.22-.9-.87-1.35-6.82-.48-8.26.6-1,6.54-3.09,6.87-2.72Z"/>
  <path class="st7" d="M172.53,74.76c.23.15,1.71,4.63,1.78,5.19.34,3.01-4.3,5.7-7.18,5.71-.57-2.87,4.08-3.54,4.46-5.12.22-.92-4.07-8.99.94-5.78Z"/>
  <path class="st7" d="M60.05,28c.95.87-4.25,6.09-5.16,6.27-1.54.3-5.32-2.97-6.72-3.99.1-3.99,5.56,1.24,5.95,1.24.65,0,4.15-5.15,5.94-3.51Z"/>
  <path class="st7" d="M105.79,151.58c1.4,1.14-1.79,7.76,7.34,5.49.54,3.54-6.12,3.58-7.81,1.86-.71-.73-2.55-7.1-2.25-7.35.1-.09,2.61-.08,2.71,0Z"/>
  <path class="st7" d="M146.99,34.41c.7.66-2.06,3.92-1.85,5.91.24,2.29,2.97,3.11,3.69,5.06-1.35,1.03-6.85-2.5-7.17-4.24-.19-1,3.06-8.87,5.34-6.73Z"/>
  <path class="st9" d="M81.1,153.4c-2.65,2.79-1.51-6.47-1.96-7.18-.16-.26-6.35-2.05-4.43-3.8.75-.68,6.25,1.72,6.87,2.73.8,1.31.08,7.66-.48,8.25Z"/>
  <path class="st7" d="M72.05,145.97c.31.43,3.68.76,4.47,2.4,1.43,2.97-6,.04-6.9-1.38-1-1.58.71-8.19,1.87-8.22,2.66-.08-.19,6.18.55,7.2Z"/>
  <path class="st7" d="M35.34,82c.34.36,1.34,7.21.78,8.1-.21.33-6.9,3.16-7.17,2.88-2.27-2.43,3.53-3.56,4.13-4.56s-.11-8.93,2.26-6.42Z"/>
  <path class="st7" d="M47.24,112.21c1.47,1.57-2.77,4.35-2.76,5.93,0,1.45,5.81,7.55.47,5.99-.26-.08-2.68-4.08-2.84-4.59-1.01-3.11,4.06-8.48,5.13-7.33Z"/>
  <path class="st9" d="M149.74,49.96c-.7-2.04,1.97-4.34,1.69-5.81-.36-1.89-4-2.59-3.52-5.16,7.01.4,8.5,8.51,1.83,10.97Z"/>
  <path class="st9" d="M175.36,112.22c2.73,2.58-5.67,1.53-6.29,1.94-.29.19-1.83,7.56-3.78,5.37-.58-.65,1.61-7.12,2.72-7.81,1.17-.72,6.85.04,7.34.5Z"/>
  <path class="st9" d="M154.31,146.99c-2.35.54-3.7-3.35-5.15-3.6-1.36-.23-5.37,5.51-5.82,1.33,4-5.5,9.93-4.47,10.97,2.27Z"/>
  <path class="st9" d="M92.88,13.47c.35.23,2.89,7.1.56,8.11s-1.86-5.9-2.32-6.35-5.04.22-6.36-.05c-2.91-2.21,7.12-2.36,8.11-1.71Z"/>
  <path class="st9" d="M149.74,146.99c1.28,1.21-4.54,5.49-5.96,5.5-1.96,0-4.34-3.91-5.93-5.05,2.27-1.74,4.72,2.56,6.73,2.16.9-.18,3.62-4.06,5.16-2.61Z"/>
  <path class="st9" d="M39.92,52.71c.44.41-1.6,6.96-1.95,7.19-1.19.76-6.23-.26-8.1.12-.83-3.64,4.62-.88,6.27-1.95.8-.51.73-8.19,3.78-5.36Z"/>
  <path class="st8" d="M125.03,65.52c-.7,2.5-4.71,4.86-6.86,6.45-1.27.94-3,.72-3.21.87-8.49-6.38-17.01-11.15-26.54-3.66-7.38,5.8-7.4,9.25-5.49,18.31-2.56,3.08.84,8.74,2.56,11.62,5.82,9.76,17.64,15.88,29.06,14.92,2.79-.24,2.36.48,2.24-2.74.91-.19,1.36-.75,1.83-.92,1.07-.37,2.96.44,3.59-1.5.27-.84-1.64-8.54-1.76-11.32-.03-.61.04-1.22,0-1.83-5.28-.25-10.86,1.11-11.9-5.49h17.85c.69,0,2.29-1.96,3.65.93,1.4,7.84,3.35,15.55,5.04,23.33.42,1.95-.05,3.22,2.76,3.2-4.5,4.83-13.45,8.58-20.13,9.15-31.23,2.68-56.2-25.41-53.99-55.84.3.1.71-.12.92,0,.06.03-.12,1.06.91.91l1.23-5.2,10.68-12.19c16.3-8.81,33.48-4.27,46.28,8.22,1.05,1.02,1.18,2.69,1.31,2.77Z"/>
  <path class="st18" d="M63.72,71.02c-2.21,30.43,22.77,58.52,53.99,55.84,1.32,5.6-3.04,2.06-2.75,5.49-8.44,1.32-13.27.78-21.29-2.05-23.08-8.13-39.66-30.67-35.45-55.62,1.83-.71,2.22-3.3,3.69-4.18,1.59-.95,1.66.47,1.8.52Z"/>
  <path class="st19" d="M108.56,79.25c-.08.05.3,1.24-.71,1.77-.9.48-4.51,1.64-4.73,1.97-.75,1.14.82,2.36.86,2.67.51,4,.95,7.96,1.83,11.9-.43.18-3,3.26-3.66,3.66-.43.26-2.45-.29-3.28.87-.75,1.05,1.34,4.1-.38,5.54-9.02-5.12-13.33-9.57-15.56-20.14-1.91-9.06-1.89-12.51,5.49-18.31,6.49,3.48,15.39,3.69,20.13,10.07Z"/>
  <path class="st15" d="M138.76,117.7h-.92c-2.8.02-2.33-1.25-2.76-3.2-1.69-7.78-3.63-15.49-5.04-23.33-1.36-2.89-2.96-.93-3.65-.93h-17.85c1.04,6.61,6.63,5.24,11.9,5.49.04.61-.03,1.22,0,1.83-4.59.37-10.26-1.82-14.64,0-.88-3.94-1.32-7.89-1.83-11.9,6.93-.04,13.84,1.13,20.74,1.49,2.27.12,5.47-1.6,7.65.78,1.95,2.13,6.02,25.48,6.38,29.77Z"/>
  <path class="st18" d="M114.96,72.85c-.3.22-2.38,5.56-3.66,6.41-.63-.04-2.5-.13-2.75,0-4.75-6.38-13.65-6.59-20.13-10.07,9.53-7.49,18.04-2.72,26.54,3.66Z"/>
  <path class="st19" d="M125.03,65.52c.89.53,2.49-1.29,2.81,1.35,1.02,8.35-7.17,12.87-14.42,13.26-1.35.07-1.97-.87-2.12-.88,1.28-.84,3.36-6.19,3.66-6.41.2-.15,1.94.07,3.21-.87,2.15-1.59,6.16-3.95,6.86-6.45Z"/>
  <path class="st2" d="M114.96,132.34c-.3-3.43,4.06.1,2.75-5.49,6.68-.57,15.64-4.32,20.13-9.15h.92c.05.6,1.21,1.2.49,2.7-2.83,5.91-18.14,10.98-24.29,11.95Z"/>
  <path class="st2" d="M69.21,60.03c-1.81,2.32-3.76,7.98-4.58,10.98-.2-.12-.62.1-.92,0-.14-.05-.22-1.47-1.8-.52-1.46.88-1.85,3.48-3.69,4.18,1.03-6.12,2.25-10.08,7.38-14.13.75-.59,3.11-2.35,3.61-.52Z"/>
  <path class="st13" d="M77.44,54.54l-10.68,12.19-1.23,5.2c-1.03.15-.85-.88-.91-.91.82-3,2.76-8.67,4.58-10.98s5.61-4.07,8.24-5.49Z"/>
  <path class="st20" d="M102.15,101.22c2.81,2.33,8.22.97,10.99,2.28,1.88.89,2.78,5.81,5.48,6.87-.47.16-.92.72-1.83.92-8.59,1.82-11.2.37-18.3-3.66,1.71-1.44-.38-4.49.38-5.54.84-1.16,2.85-.61,3.28-.87Z"/>
  <path class="st18" d="M120.46,97.56c.12,2.78,2.03,10.47,1.76,11.32-.63,1.94-2.52,1.13-3.59,1.5-2.7-1.07-3.61-5.99-5.48-6.87-2.77-1.31-8.18.05-10.99-2.28.66-.4,3.23-3.48,3.66-3.66,4.39-1.82,10.05.37,14.64,0Z"/>
  <path class="st15" d="M98.49,107.63c7.1,4.03,9.71,5.48,18.3,3.66.12,3.23.55,2.51-2.24,2.74-11.42.96-23.24-5.16-29.06-14.92-1.72-2.89-5.12-8.54-2.56-11.62,2.23,10.57,6.54,15.02,15.56,20.14Z"/>
</svg>