<?xml version="1.0" encoding="UTF-8"?>
<svg id="Layer_1" xmlns="http://www.w3.org/2000/svg" version="1.1" xmlns:xlink="http://www.w3.org/1999/xlink" viewBox="0 0 559.15 486.59">
  <!-- Generator: Adobe Illustrator 29.6.1, SVG Export Plug-In . SVG Version: 2.1.1 Build 9)  -->
  <defs>
    <style>
      .st0 {
        fill: #bbad9e;
      }

      .st1 {
        fill: #c6a963;
      }

      .st2 {
        fill: #f8efda;
      }

      .st3 {
        fill: #fff;
      }

      .st4 {
        fill: url(#radial-gradient1);
        stroke-width: 3px;
      }

      .st4, .st5 {
        stroke: #a19977;
        stroke-miterlimit: 10;
      }

      .st6 {
        fill: none;
      }

      .st5 {
        fill: url(#radial-gradient);
        stroke-width: 4px;
      }

      .st7 {
        fill: #a17f59;
      }

      .st8 {
        clip-path: url(#clippath-1);
      }

      .st9 {
        fill: #976f47;
      }

      .st10 {
        fill: #dabf9b;
      }

      .st11 {
        fill: #b2a06a;
      }

      .st12 {
        fill: #a58953;
      }

      .st13 {
        fill: #b78c44;
      }

      .st14 {
        fill: #ded6cd;
      }

      .st15 {
        clip-path: url(#clippath);
      }

      .st16 {
        fill: #be9d7b;
      }

      .st17 {
        fill: #cdc3b4;
      }
    </style>
    <radialGradient id="radial-gradient" cx="264.69" cy="243.29" fx="264.69" fy="243.29" r="233.28" gradientUnits="userSpaceOnUse">
      <stop offset=".09" stop-color="#631f1f"/>
      <stop offset=".28" stop-color="#4b1919"/>
      <stop offset=".62" stop-color="#311414"/>
      <stop offset=".8" stop-color="#221010"/>
      <stop offset="1" stop-color="#130c0d"/>
    </radialGradient>
    <radialGradient id="radial-gradient1" cx="264.69" cy="242.7" fx="264.69" fy="242.7" r="226.45" gradientUnits="userSpaceOnUse">
      <stop offset=".01" stop-color="#235329"/>
      <stop offset=".2" stop-color="#234922"/>
      <stop offset=".43" stop-color="#1d3119"/>
      <stop offset=".66" stop-color="#182214"/>
      <stop offset=".76" stop-color="#0c120a"/>
      <stop offset=".89" stop-color="#030402"/>
      <stop offset="1" stop-color="#000"/>
    </radialGradient>
    <clipPath id="clippath">
      <rect class="st6" x="-203.8" y="-219.84" width="929.68" height="929.68"/>
    </clipPath>
    <clipPath id="clippath-1">
      <rect class="st6" x="-203.8" y="-219.84" width="929.68" height="929.68"/>
    </clipPath>
  </defs>
  <circle class="st5" cx="264.69" cy="243.29" r="233.28"/>
  <circle class="st4" cx="264.69" cy="242.7" r="226.45"/>
  <g class="st15">
    <g class="st8">
      <path class="st14" d="M391.96,212.32c-.34,6.2-1.66,12.84-1.71,19.1-.14,15.68,1.62,31.59,1.14,47.33-.45,1.43-5.93,3.94-7.41,4.28-2.44-3.44,5.15-4.66,1.71-6.84,3.19-3.97.09-33.83,0-40.77-.08-6.21.97-11.59,1.14-17.39.05-1.72.39-3.44,0-5.13l5.13-.57Z"/>
      <path class="st7" d="M394.24,214.6c-1.99-1.97-1.25-3.65.48-4.97,0-.15-.01-.3-.02-.45-.01-.27-.04-.54-.05-.81,0,0,0,0,0,0,0,.31-.17-.35,0,0,0,0,0,0,0-.01-.17-.38-.25-.79-.26-1.19-.05,0-.09.02-.14.02-.53.52-1.01.92-1.71,1.14.15,1.48-.49,2.55-.57,3.99-.34,6.2-1.66,12.84-1.71,19.1-.14,15.68,1.62,31.59,1.14,47.33-.45,1.43-5.93,3.94-7.41,4.28-4.28.97-8.78.42-13.12.57v.66c.3.1.6.22.88.38.15.03.3.05.44.09.51.13.97.34,1.4.59.04,0,.08,0,.13,0,1.13-.05,2.29.07,3.42,0,3.21-.19,6.46.08,9.69,0,.21,0,1.47-1.33,3.99-1.14.28-1.67,1.85-2.95,2.28-4.56.92-3.4.43-6.3.57-9.69.12-2.8.19-5.76.57-8.55-1.88-4.44-.33-5.7-.57-9.12-.09-1.26-.51-2.17-.57-3.42-.07-1.51.05-3.05,0-4.56-.09-2.98-.02-6.12,0-9.12.04-5.8-.88-12.9,1.14-17.96h-1.14v-2.28l1.14-.29Z"/>
      <path class="st11" d="M224.3,287.6h-1.71c-.11,1.92-.28,3.43-.79,4.72-.39,1.23-.65,2.46-.96,3.68.5.13.95.33,1.19.73.14.25.05,5.42,0,5.7-.35,1.95.04,1.6-1.14,3.42,1.9,4.94.07,12.05,0,17.39-.12,9.99.5,20.16.57,30.22,0,1.2-1.76,5.07-1.71,6.27.01.26,1.51.46,1.71,4.28.07,1.34-.59,2.67-.57,2.85.4.04.86-.2,1.14.29.08.63.46,3.83.57,3.99.43.62.92-.61,1.14-.28-.47-1.91-.53-3.74-.57-5.7-.54-24.23-.44-53.45,1.14-77.55"/>
      <path class="st7" d="M223.73,370.85c1.09,1.58,2.46,5.45,4.28,6.27,2.43,1.11,7.68.45,10.55.57.83.86-3.2,2.26-3.42,2.28-1.09.09-6.42-2.03-6.27.57-.45-.52-2.08-2.53-2.85-1.14-.3-.48-2.23-2.65-2.85-3.42-1.99-2.58-1.97-5.98-2.28-9.12.4.04.86-.2,1.14.29.08.63.46,3.83.57,3.99.43.62.92-.61,1.14-.29"/>
      <path class="st16" d="M293.72,112.27s.06,0,.1,0c.18-.04.38-.08.59-.08.08,0,.16.01.23.02.3-.02.59-.01.88.01.41-.06.8-.11,1.2-.11.17-.04.34-.06.53-.06.16,0,.31.02.45.04-1.57-4.14-10.19-.55-12.96-1.29-1.31-.35-1.67-.74-1.68-1.23-.17-.04-.35-.08-.52-.13-.2.09-.41.17-.64.23-.14.04-.28.04-.42.07-.17.57-.31,1-.45,1.07-1.78.93-15.53-.64-18.53-.57-5.87.13-13.65-.24-18.82,0-3.59.16-17.1,1.25-19.67,2.85-3.27,2.03-2.37,6-2.57,9.12l2.28-2.28c-.25-2.19.01-3.92,2-5.13,2.85-1.74,50.63-2.68,67.29-2.44.22-.06.45-.1.71-.1"/>
      <path class="st12" d="M220.31,283.03c-12.95,1.79-66.91,1.39-79.55-.57-6.35-.99-6.87-5.79-7.7-11.41-.84-.68-1.21-2.02-2-2.07.03.69-.02,1.36-.12,2.02,1.14,2.26,2.67,4.96.4,6.9,1.63,1.33,2.4,1.88,2.85,4.56,1.46,0,5.27,1.84,7.98,2.28,3.88.63,4.79-.46,9.12,1.14.39-1.37,1.25-1.06,2.28-1.14,8.11-.61,17.96.26,26.23.57.57.02,1.15-.02,1.71,0,1.88.07,3.83-.13,5.7,0,.56.04,1.15-.04,1.71,0,1.11.09,3.71-.39,4.77.41.32-.02.63-.03.95-.03,0-.03-.01-.06-.02-.1.86-.74,1.82-.68,2.85-.86,6.12-1.02,15.69.47,22.24,0,.15-.28,1.01-.61.57-1.71"/>
      <path class="st14" d="M229.43,364.58c.22.06,1.89,2.45,3.71,2.85,3.57.8,7.49,1.22,11.12,1.71-.48,1.82,1.3,1.95,2.57,2.28,4.12,1.09,43.87,3.11,45.91,1.71-.35,2.93,2.34-.12,3.42,3.42-3.9.64-8.06.33-11.98.57-14.97.91-30.63,1.21-45.62.57-2.87-.12-8.12.54-10.55-.57-1.81-.83-3.18-4.69-4.28-6.27-.47-1.91-.53-3.74-.57-5.7,2.68-1.5,3.3.33,4.85.57.19.03.91-1.28,1.43-1.14"/>
      <path class="st3" d="M392.53,208.33c-.81-7.81-8.91-6.7-15.91-5.29-1.24-1.43-2.2-2.61-2.13-2.74-12.92.44-35.1,4.2-48.11,4.61-9.02.28-18.05.67-27.09.57l-.28-1.14c.78-24.73-1.11-49.7,0-74.42.17-3.7,1.71-7.88,1.71-11.69,0-.7.14-1.51-.39-2.02.01-1.67.02-3.05-1.07-3.44.06-.04-.65-.03-.59-.07.44-.03.89-.05,2.05-.08-.03-.06-.12-.11-.15-.17-.07-.12-.1-.28-.15-.41-1.32,0-2.22,0-3.67.02,0,0-1.12.13-1.11.13-16.65-.24-67.07.89-69.92,2.62-1.98,1.21-2.25,2.94-2,5.13v83.26c-1.2,2.12-13.15,2.14-16.25,2.28-23.91,1.07-47.96-1.29-71.85,0-4.66,3.77-1.06,9-1.43,13.97-.54,7.26-.82,18.92-1.71,25.38-.64,4.66-1.79,4.21-5.13,7.7-.08,3.58,3.34.57,5.13,0,.14,3.31-.19,6.68,0,9.98,0,.09.46.27.57,1.71,2.74,1.3,4.93.82,5.7-2.28-1.51-17.28-.37-34.54-.29-51.89l90.95-1.43c.61-20.42-.56-40.92-.57-61.3,0-6.3.65-12.72.57-19.1-.04-3.45-2.74-8.39,1.43-9.98,3.57-1.36,53.65-1.06,59.02,0,2.27.45,3.94-.38,5.13,2.57.41,23.22-2.24,48.26-1.14,71.28.11,2.34,1.25,16.75,2.57,17.39h88.96c1.29.91,1.14,2.19,1.43,3.42l5.13-.57c.08-1.44.72-2.52.57-3.99M296.35,122.52c-.23-.23,1.5-.09,1.36-.47.28.25-.38-1.71-.13-1.54-.02.29-.97,2.25-1.22,2M297.45,114.12c1.26.39,2.19.78,2.09,1.13.18.26-.47-1.54-.65-1.24-.86-.72-1.36-.12-1.44.11"/>
      <path class="st9" d="M302.43,356.31h.03c.01-.11.03-.23.06-.34-.02-.33-.05-.66-.06-1,0-.1.02-.2.03-.3-.02-.03-.04-.05-.05-.07-.88-15.99.93-32.26.57-48.19-.08-3.73.16-8.5,0-11.98,0-.19.01-.38,0-.57-.03-.5-2.12-5.97-2.28-9.12-.08-1.53.53-2.22.57-2.85.19-2.8-1.27-2.48,1.14-5.7.61-.82,1.38-.46,1.14-1.71-5.28.37-8.31-.82-9.69,4.85-5.41,22.13,3.46,62.58-.57,86.39-.27,1.59-.71,2.52-1.14,3.99.29-.11,1-.44,1.14-.57.1-.08,1.09-2.12,1.14-2.28,4.66-14.25-1.06-60.93.57-79.55.07-.84,1.65-13.5,3.42-8.55,2.54,28.86.11,58,1.71,86.96.18,3.26.79,6.44,0,9.69,2.32-.84,2.01-.89,2.67-1.59.08-.35.2-.69.38-1.01.1-.35.2-.71.3-1.06-.21-3.92-.5-7.79-.5-11.74,0-1.46-.75-2.28-.57-3.71"/>
      <path class="st14" d="M300.15,365.72c.18,3.26.79,6.44,0,9.69-1.79.65-1.92.8-3.99,1.14-1.08-3.54-3.77-.49-3.42-3.42.89-.61,1.52-2.97.57-3.99.1-.08,1.09-2.12,1.14-2.28l5.7-1.14Z"/>
      <path class="st17" d="M385.68,276.19c3.44,2.18-4.15,3.4-1.71,6.84-4.28.97-8.78.42-13.12.57-3.78.13-7.62-.06-11.41,0-1.78.03-3.89.01-5.7,0-17.55-.13-34.88-1.86-52.46-1.71.19-2.8-1.27-2.48,1.14-5.7,9.74,1.09,80.17,3.84,83.26,0"/>
      <path class="st16" d="M231.14,143.89c-.1,11.79,2.29,57.75,0,65.29-.08.28-1.12,1.87-1.43,2l-84.4.57-5.42,2,.57,56.45,3.14,3.14c27.55,2.67,56.37.14,84.4,1.71l1.43,2.28c.18,1.42,1.07,3.91,1.14,5.13,1.66,26.92.29,54.26,1.14,81.26.98,2.92,15.95,3.53,19.1,3.71,8.79.5,32.15,1.36,39.92,0,.59-.1,1.87-1.49,2.57-1.71-.27,1.59-.71,2.52-1.14,3.99-4.2,1.63-20.15,1.26-25.38,1.14-7.37-.17-15.22-.73-22.53-1.71-3.63-.49-7.55-.91-11.12-1.71-1.81-.4-3.48-2.79-3.71-2.85l-1.14-84.11-2-3.71c-2.82-.06-1.86,8.72-2,10.84h-1.71c.03-.47-.02-.95,0-1.43h-1.14c-.05-1.3.42-2.43.57-3.71.03-.21,2.3-1.25.57-3.71-1.02-.01-2.49-.74-3.14-.86-19.69-3.51-53.62,4.16-72.42-.57-10.04-2.52-7.63-8.04-8.27-15.4-1.51-17.28-.37-34.54-.29-51.89l90.96-1.43c.6-20.42-.56-40.92-.57-61.3l2.28-3.42Z"/>
      <path class="st2" d="M229.43,364.58c-.51-.14-1.23,1.17-1.43,1.14-1.55-.24-2.16-2.07-4.85-.57-.54-24.23-.44-53.45,1.14-77.55.14-2.11-.83-10.89,2-10.84l2,3.71,1.14,84.11Z"/>
      <path class="st1" d="M223.73,203.2h-2.28c-.25-2.64-1.23-6.62-1.14-9.12.1-2.89,1.71-9.02,1.71-12.83,0-8.34-2.2-17.83-1.71-25.66.05-.78,2.31-3.22,2.28-3.42-.1-.64-1.69-.92-1.71-1.14-.6-6.87.87-16.8,1.14-24.24.02-.57-.02-1.15,0-1.71.06-1.38-.63-1.92-.57-2.85l2.28-2.28v83.26Z"/>
      <path class="st17" d="M222.02,282.46c-.86-.28-1.1.49-1.71.57-12.95,1.79-66.91,1.39-79.55-.57-6.35-.99-6.87-5.79-7.7-11.41-.3-2.04.16-4.68,0-6.84,2.75,1.3,4.94.82,5.7-2.28.64,7.36-1.77,12.87,8.27,15.4,18.8,4.73,52.73-2.94,72.42.57.65.12,2.11.84,3.14.86,1.73,2.46-.54,3.49-.57,3.71"/>
      <path class="st14" d="M292.16,369.71c.29-.11,1-.44,1.14-.57.95,1.02.32,3.38-.57,3.99-2.04,1.4-41.79-.62-45.9-1.71-1.26-.33-3.05-.46-2.57-2.28,7.31.98,15.16,1.54,22.53,1.71,5.22.12,21.18.49,25.38-1.14"/>
      <path class="st16" d="M386.82,212.89c.39,1.69.05,3.41,0,5.13-2.18.25-.68-3.38-1.14-4.85-.22-.72-.86.54-1.14.28-1.99-1.77-4.69-2.04-7.13-2.28-26.23-2.6-56.66,1.82-83.26.57-1.58-.66-1.88-14.23-2-16.82-1.03-23.52,1.4-48.74,1.14-72.42l-3.42-3.14v-1.14c2.27.45,3.94-.38,5.13,2.57.41,23.22-2.24,48.26-1.14,71.28.11,2.34,1.25,16.75,2.57,17.39h88.96c1.29.91,1.14,2.19,1.43,3.42"/>
      <path class="st7" d="M304.14,203.2c-3.07-.36-2.86-.62-1.71-3.99-1.53-5.09-.82-9.21,0-13.69.22-1.21-.42-5.12.29-5.7.04,0,.08.01.13.02-.05-.39-.07-.79-.03-1.18-1.64-.7-.86-8.54-.95-10.24-.15-2.63-.49-5.41-.57-7.98-.09-2.88.57-5.84.57-8.55,0-3.36-.68-6.77-.57-10.26.05-1.71-.7-2.61,0-5.13-2.92-.32-.07-1.82,0-2.28.21-1.43,1.29-13.29,1.14-13.97-.18-.84-1.12-1.28-1.71-2,0,3.81-1.55,7.99-1.71,11.69-1.11,24.72.78,49.69,0,74.42,1.93-.25,3.78-.3,5.7-.57.06-.49-.14-.52-.57-.57"/>
      <path class="st1" d="M289.88,118.23v1.14l-57.31.57c-.69.5-1.78,1.11-2,2-.49,1.99.6,18.04.57,21.95l-2.28,3.42c0-6.3.65-12.72.57-19.1-.04-3.45-2.74-8.39,1.43-9.98,3.57-1.36,53.65-1.06,59.02,0"/>
      <path class="st14" d="M300.15,365.72l-5.7,1.14c4.66-14.25-1.06-60.93.57-79.55.07-.84,1.65-13.5,3.42-8.55,2.54,28.86.11,58,1.71,86.96"/>
      <path class="st7" d="M386.82,218.03c-.17,5.8-1.22,11.18-1.14,17.39.09,6.94,3.19,36.8,0,40.77-3.08,3.84-73.52,1.09-83.26,0,.61-.82,1.38-.46,1.14-1.71,26.08-1.83,53.9,1.65,80.12,0l.86-61.02c.28.25.92-1,1.14-.29.46,1.47-1.04,5.1,1.14,4.85"/>
      <path class="st14" d="M236.85,265.93c.2,6.05.06,11.99,1.14,17.96-2.93.97-.16-3.66-3.71-4.28l-3.71,2.85c-.08-1.22-.96-3.71-1.14-5.13,0-.06,1.18.17,1.14-.29-.37-4.25-3.48-2.81-5.99-4.85l-79.27.57-1.43-.86c.68-.83,1.21-3.46,1.14-4.28,2.21.17,4.63,1.02,6.27-.57,5.18,2.65,65.61,1.28,75.56.57,3.24-.23,6.74-1.32,9.98-1.71"/>
      <path class="st17" d="M209.48,219.17v1.14c-7.27.06-55.42-.39-57.88,1.14-1.93,1.2-2.41,13.4-2.57,16.25-.28,5.29-.81,20.43,2.28,24.24.45,4.12,13.81,3.29,17.96,3.42,22.66.73,45.46-1.53,68.15-.57.06.52-.59.6-.57,1.14-3.24.39-6.74,1.48-9.98,1.71-9.95.71-70.38,2.08-75.56-.57-5.66-2.9-4.01-15.3-3.99-21.1.01-3.92.31-21.78,1.14-24.24,1.01-2.97,15.88-3.05,19.1-3.14,13.56-.34,27.95.73,41.91.57"/>
      <path class="st17" d="M378.27,268.21c-27.65.38-55.31-.05-82.97,0-1.18,0-4.14-1.65-5.7-1.14-3.63,1.18.65,26.89-2.57,30.79-.17-7.64-1.56-26.18-.57-32.5l89.53.57c2.64-1.2,1.11-32.56.57-37.07,3.32,7.02,3.58,18.07,3.42,25.95,0,.43-1.13.14-1.14.57-.13,4.45,1.8,8.75-.57,12.83"/>
      <path class="st3" d="M378.27,268.21c2.37-4.08.44-8.38.57-12.83.01-.43,1.13-.14,1.14-.57.16-7.88-.1-18.93-3.42-25.95-.17-1.37-.88-7.26-1.14-7.98-1.75-4.86-10.57-.41-14.26-3.14,7.2-2.91,14.22-6.86,21.67-2.85l1.14,55.88c-2.31,1.36-3.36-2.38-5.7-2.57"/>
      <path class="st3" d="M236.28,344.62c.34,3.12,1.55,12.74,3.99,14.26,5.93,2.06,43.63,2.96,46.19.28,2.54-2.65.57-17.35.57-21.67,0-7.48-.36-16.53-.57-24.81,1.89.05,1.13-4.9,1.14-6.84,4.59,1.98,4.35,9.57,4.56,13.97.42,8.89-1.76,17.91,0,26.8-5.24,1.72.44,11.79-4.28,14.54-7.15,4.17-41.71-1.05-51.89,1.14-1.31-.47-1.49-15.92.29-17.68"/>
      <path class="st14" d="M238.56,312.12c.09,10.16-.97,31.39.57,40.2.04.21,2.11,3.57,2.28,3.71l-1.14,2.85c-2.44-1.52-3.65-11.13-3.99-14.26-.55-5.07-.77-10-.57-15.11l2.85-17.39Z"/>
      <path class="st0" d="M240.27,264.79c1.74,26.05-2.88,56.38,0,82.4.72,6.54,1.2,8.63,7.98,9.41.51,2.42-5.93.17-6.84-.57-.17-.14-2.24-3.49-2.28-3.71-1.54-8.81-.48-30.04-.57-40.2-.13-14.99-.23-32.17.57-47.05.06-1.09-.32-2.14,1.14-2.57.03.75-.05,1.53,0,2.28"/>
      <path class="st14" d="M147.32,245.97c-.02,5.8-1.67,18.2,3.99,21.1-1.64,1.59-4.06.74-6.27.57-.05-.54-1.13-1.88-1.14-2-.35-6.43.26-12.95,0-19.39l3.42-.29Z"/>
      <path class="st3" d="M384.54,213.46l-.86,61.02c-26.22,1.64-54.04-1.83-80.12,0-5.28.37-8.31-.82-9.69,4.85-5.41,22.13,3.46,62.58-.57,86.39-.7.22-1.98,1.61-2.57,1.71-7.77,1.36-31.13.5-39.92,0-3.16-.18-18.13-.78-19.1-3.71-.86-27,.52-54.34-1.14-81.26l3.71-2.85c3.54.62.78,5.25,3.71,4.28-1.08-5.98-.94-11.91-1.14-17.96-.02-.54.63-.63.57-1.14l-.29-1.14c-16.45-.54-32.91.54-49.33.57l52.46-1.71c-1.46.42-1.08,1.48-1.14,2.57-.8,14.88-.7,32.06-.57,47.05l-2.85,17.39c-.2,5.11.02,10.04.57,15.11-1.78,1.76-1.59,17.21-.29,17.68,10.18-2.19,44.74,3.03,51.89-1.14,4.72-2.75-.96-12.82,4.28-14.54-1.76-8.89.42-17.91,0-26.8-.21-4.4.03-11.99-4.56-13.97.01-2.71-.52-5.41-.57-7.98,3.21-3.9-1.07-29.61,2.57-30.79,1.56-.51,4.52,1.14,5.7,1.14,27.66-.05,55.32.38,82.97,0,2.35.19,3.39,3.93,5.7,2.57l-1.14-55.89c-7.44-4.01-14.47-.06-21.67,2.85,3.69,2.72,12.5-1.72,14.26,3.14-5.06-2.23-13.26-2.2-19.1-2.28-23.3-.32-46.84.92-70.14,1.14l-1.43-86.96c-.6-5.43-4.41-5.52-8.84-5.99-5.25-.55-29.04-.45-33.64.57-.67.15-2.88,1.28-3.14,2l-.57,89.53c-9.64.64-19.41.17-29.08.29-13.96.16-28.36-.91-41.91-.57-3.22.08-18.1.17-19.1,3.14-.83,2.46-1.13,20.32-1.14,24.24l-3.42.29c.26,6.44-.35,12.96,0,19.39,0,.11,1.09,1.45,1.14,2,.07.82-.46,3.44-1.14,4.28l1.43.86,79.27-.57c2.51,2.04,5.62.6,5.99,4.85.04.45-1.15.23-1.14.28l-1.43-2.28c-28.02-1.57-56.85.96-84.4-1.71l-3.14-3.14-.57-56.45,5.42-2,84.4-.57c.3-.12,1.34-1.72,1.43-2,2.29-7.54-.1-53.5,0-65.29.03-3.91-1.06-19.96-.57-21.96.22-.89,1.3-1.5,2-2l57.31-.57,3.42,3.14c.26,23.68-2.17,48.9-1.14,72.42.11,2.59.42,16.16,2,16.82,26.6,1.25,57.03-3.17,83.26-.57,2.44.24,5.14.51,7.13,2.28"/>
      <path class="st14" d="M250.25,365.15c10.85.54,22.03-1.11,32.79.86-5.58.51-11.22.3-16.82.29-4.88-.01-11.55.95-15.97-1.14"/>
      <path class="st3" d="M348.62,224.87c-4.17.59-8.1,3.23-12.55,3.14-1.22,2.82,16.2,1.37,11.12,4.28-2.97,1.7-18.83-4.43-22.81-.57-7.85.94-18.13-.12-25.66,1.71-1.96.48-1.46.07-1.43,2.28-2.71-.13-10.68.31-12.26,0-2.34-.46-4.23-2.84-6.27-1.71-1.09-2.67,5.63-2.82,5.42-3.71-.13-.56-2.31-1.45-1.71-2.85.77-1.79,21.05-1.03,25.38-2.57,1.1-.39.68-2.09,1.14-2.28,1.13-.47,21.42-.02,24.52,0,.36,0,3.75,1.13,5.13,1.14,1.54.01,9.32-2.7,9.98,1.14"/>
      <path class="st3" d="M244.26,278.47c-.61,12.64-.26,24.91.57,37.64.56,8.53,2.29,16.81,2.28,25.38h-1.71c-2.23-2.95-.99-14.26-1.71-18.25-.15-.82.31-2-1.14-1.14l1.43,31.65,35.93,1.14c2.14-.83,1.62-9.4,1.43-11.98,5.65-3.12,1.25-7.01,3.42-12.55-.06,5.04,1.63,24.58-3.71,26.23-1.89.58-29.45.38-32.79,0-6.79-.77-7.26-2.87-7.98-9.41-2.88-26.03,1.74-56.35,0-82.4,2.13.45,3.79-2.52,5.7-.29-2.23,4.38-1.48,9.29-1.71,13.97"/>
      <path class="st0" d="M302.43,260.79v1.14c-2.38.04-17.14.27-17.68,1.43.94,16.42,1.29,32.89,1.71,49.33.21,8.28.57,17.32.57,24.81,0,4.32,1.97,19.02-.57,21.67-2.56,2.68-40.26,1.77-46.19-.28l1.14-2.85c.91.74,7.35,2.99,6.84.57,3.34.38,30.9.58,32.79,0,5.33-1.65,3.65-21.19,3.71-26.23.28-22.67.28-45.42-1.14-68.15.74-1.5,7.43-.74,9.12-.86,3.22-.22,6.47-.34,9.69-.57"/>
      <path class="st3" d="M315.79,256.95l56.78-12.12c-.16,5.7.02,12.15-1.43,17.68-1.24.55-51.76-5.56-55.35-5.56"/>
      <path class="st3" d="M372.57,261.36l-37.07-7.41c-3.61-.26-9,.66-10.55.57-3.09-.18-3.22-1.13-3.42-1.14-9.29-.44-2.08,5-11.03,5.11-1.57-1.02-15.56-1-17.77-1.12-2.13-.12-16.73,6.37-17.68,3.42-1.46-4.56-12.29-31.52-11.46-31.93,11.91.8,97.08-6.95,108.97-5.7,5.23.55-1.43,39.35,0,38.21"/>
      <path class="st3" d="M274.48,280.75c-9.44-3.67,2.65,12.96-1.43,17.11-3.2-5.89-2.72-12.49-3.71-18.82-.43-2.75-3.83-12.94-2.28-15.11.34-.47,3.02-.47,3.42,0,.3.36-1.02,9.22-.28,9.41,4.51,1.17.25-10.65,5.13-9.12l-.86,16.54Z"/>
      <path class="st3" d="M305.28,237.98l9.69,2.57c-3.8,2.07-9.69-1.18-12.55,2-2.64-.21-19.8-.19-20.53-2-.04-.11.5-2.19.57-2.28,1.16-1.45,19.76,0,22.81-.29"/>
      <path class="st3" d="M265.36,280.18l-.86,29.65c-2.05-8.22-2.84-19.53-2.57-28.23.06-1.88,4.49-4.71-1.71-5.42.13-.91,1.47-14.4,3.71-12.55.77,1.23-.08,3.07.28,4.28,1.22,4.07.76,6.8,1.14,12.26"/>
      <path class="st3" d="M325.24,259.08c-6.34-.15-16.06,1.24-22.81,1.71-3.23.22-6.47.35-9.69.57l1.14-1.71c10.67-1.09,4.58-1.77-1.14-2.28l.57-1.14c9.6,1.04,20.66.14,29.94,1.14,1.54.17,2.26-.58,2,1.71"/>
      <path class="st3" d="M259.09,279.61c-.89,11.75,1.07,23.65,1.14,35.36.06,9.75-1.71,14.5-2.28,1.14-.56-12.96.04-25.86,0-38.78.03,1.28-.46,2.55,1.14,2.28"/>
      <path class="st14" d="M328.66,262.5c-8.29.88-17.77-.7-26.23-.57v-1.14c6.75-.47,16.1-3.11,22.44-2.96.07,0,4.37.03,4.81.06,4.64.29,10.63,3.38-1.01,4.61"/>
      <path class="st3" d="M283.04,219.74v-27.09c-2.94.69-.28,5.76-.57,8.55-.39,3.77-2.77,8.53-2.28,13.69.35,3.65-.1,4.62,2.85,5.42,15.05,4.05,60.09-1.61,79.55,0,7.4.61,11.16-.86,12.26,7.13,1.46,10.61-1.89,25.02-.57,33.93l-2,2.85h-86.11c-.7.28.37.62.28,1.14-.99,6.32.41,24.87.57,32.5.06,2.57.58,5.28.57,7.98-.01,1.95.75,6.89-1.14,6.84-.42-16.44-.77-32.9-1.71-49.33.53-1.15,15.3-1.39,17.68-1.43,8.46-.13-13.92-15.89-5.63-16.77l45.22,7.62c3.59,0,27.88,10.27,29.13,9.72,1.45-5.53,1.27-11.98,1.43-17.68.08-2.79.52-19.11-1.43-19.96-7.52.04-15.02-1.06-22.52,0-.66-3.84-8.44-1.13-9.98-1.14-1.38-.01-4.77-1.14-5.13-1.14-3.11-.02-23.39-.47-24.52,0-.46.19,5.75,22.18,4.65,22.58-4.32,1.54-30.39-19.52-31.16-17.73-.6,1.4,1.58,2.29,1.71,2.85.21.89-6.5,1.03-5.42,3.71,2.04-1.13,3.93,1.25,6.27,1.71,1.57.31,9.55-.13,12.26,0,4.06.19,8.19-.14,12.26,0,.45,2.87-2.6,2.13-4.28,2.28-3.05.28-21.65-1.16-22.81.29-.07.09-.61,2.17-.57,2.28.73,1.8,17.89,1.78,20.53,2,6.46.52,21.92.71,27.09,2.28.73.22,3.2.94,2.28,2.28-7.46-.01-38.4.25-45.69,1.74,13.88,2.81,51.74,2.9,66.22,2.25.86,1.45-.32.99-1.14,1.14-1.86.34-32.67,5.32-34.74,5.2-6.23-.39,6.9-8.07,1.67-8.62-11.89-1.25-24.02-1.48-35.93-2.28-.83.41.62,2.53.86,2.85.47,4.56-1.92,1.02-3.99,3.14-1.04,2.53,11.88,3.45,14.26,3.71l-.57,1.14c-15.75-1.4-11.05,3.53,1.14,2.28l-1.14,1.71c-1.69.12-8.38-.65-9.12.86,1.42,22.72,1.42,45.47,1.14,68.15-2.17,5.54,2.83,19.83-2.82,22.95-.05.03-1.6,1.67-2.03,1.57l-17.68,1.04,17.96-42.38c2.85,30.04-21.43-2.02-22.39-2.14-.09-42.42,18.31-15.98,19.83-16.39,2.96,1.91,1.44,6.12,3.42,8.55.13-5.5,2-14.79-1.43-19.39,1.62-3.84-.05-7.9,0-11.69,0-.34-3.68-7.35,2.73-6.14-2.23-28.73,7.21,33.3-.42,43.49-.6-.37-19.38-26.55-20.02-26.8l13.43-18.82c-4.88-1.53-.62,10.3-5.13,9.12-.73-.19.41-9.86.28-9.41-10.83,38.62-3.08-.47-3.42,0-1.55,2.17,1.85,12.36,2.28,15.11-2.27-.26-1.57.44-1.71,2-.16,1.69,1.73,15.7-.29,15.68-2.06-4.99-1.62-11.16-2-16.54-.38-5.46.08-8.19-1.14-12.26-.36-1.21.48-3.05-.28-4.28,11.4,84.92-4.2,11.77-3.71,12.55,16.13,25.09,18.53,51.34-1.14,3.42-1.6.27-1.12-1-1.14-2.28,0-.14,24.46,50.03,23.38,48.76-.85-1-18.9,30.21-19.1,29.84-.64-1.18-5.07-2.41-7.22-1.83-3.05,1.53-8.89,1.23-11.03-.35l-3.71-26.22c.23-4.68-1.14-62.46,5.7-63.03-1.91-2.23-3.57.74-5.7.29-.05-.75.03-1.53,0-2.28l-52.46,1.71c-8.38.01-25.55,1.36-32.79,0-1.27-.24-2.83-1.2-3.71-2.28-3.09-3.81-2.56-18.94-2.28-24.24.15-2.86.64-15.05,2.57-16.25,2.46-1.53,50.61-1.08,57.88-1.14,8.92-.07,18.19-.39,27.09,0,.24.01,2.59,2.69,4.28.29-2.29-29.22-1.07-59-.57-88.39.89-1.73,1.84-2.59,3.71-3.14,4.47-1.3,31.01-1.35,35.36,0,2.03.63,3.19,1.58,3.71,3.71,2.05,8.38,1.04,34.22,1.14,44.48.13,14.08.72,28.6-1.14,42.48"/>
      <path class="st0" d="M375.42,220.88c.26.73.98,6.61,1.14,7.98.54,4.51,2.07,35.86-.57,37.07.82-2.33-1.67-4.29-1.71-4.56-1.32-8.91,2.03-23.32.57-33.93-1.1-7.99-4.86-6.52-12.26-7.13-19.46-1.61-64.5,4.05-79.55,0v-.57c1.86-13.88,1.28-28.4,1.14-42.48-.1-10.26.91-36.1-1.14-44.48-.52-2.12-1.68-3.08-3.71-3.71-4.34-1.35-30.88-1.3-35.36,0-1.87.54-2.82,1.41-3.71,3.14-.5,29.39-1.72,59.17.57,88.39-1.68,2.41-4.03-.27-4.28-.28-8.9-.39-18.17-.07-27.09,0v-1.14c9.68-.11,19.44.35,29.08-.29l.57-89.53c.26-.72,2.47-1.85,3.14-2,4.6-1.02,28.4-1.12,33.64-.57,4.43.47,8.24.56,8.84,5.99l1.43,86.96c23.3-.22,46.84-1.46,70.14-1.14,5.85.08,14.04.05,19.1,2.28"/>
      <path class="st0" d="M187.81,264.22c16.41-.03,32.88-1.11,49.33-.57l.29,1.14c-22.68-.96-45.49,1.3-68.15.57-4.15-.13-17.51.7-17.96-3.42.88,1.08,2.44,2.04,3.71,2.28,7.23,1.36,24.41.01,32.79,0"/>
      <path class="st3" d="M209.48,260.79c6.18.04,12.08.09,18.25.57,1.55.12,7.31-.92,7.13,1.14l-81.55-.57c-.21-.11-1.96-4.04-2-4.28-.68-4.15-.29-28.69,1.14-31.93.2-.46,1.65-2.56,2-2.57,2.69,2.51-1.2,5.45,1.43,9.41,2.39,3.61,19.12,10.88,18.82,11.98-.26.94-3.5,1.19-.28,4.85.6.69,15.63,6.61,16.54,6.84,1.94.5,12.74.6,13.12,1.14v1.71c-8.08,2.8,2.54,1.69,5.42,1.71"/>
      <path class="st3" d="M227.72,261.36c-6.17-.48-12.07-.53-18.25-.57l6.84-2.57c-3.9-3.24-.81-1.92-.57-2.85.06-.23-1.92-.24-.86-1.43,1.48-1.64,17.31-4.33,17.39-.86l-8.27.86c-2.8,6.89,6.62-.46,9.98,2.57-3.47-.07-5.68,1.13-6.27,4.85"/>
      <path class="st0" d="M375.99,265.93l-89.53-.57c.08-.52-.98-.87-.29-1.14h86.11l2-2.85c.04.27,2.53,2.23,1.71,4.56"/>
      <path class="st3" d="M283.04,219.74v.57c-2.95-.79-2.5-1.77-2.85-5.42-.49-5.15,1.89-9.91,2.28-13.69.29-2.79-2.37-7.87.57-8.55v27.09Z"/>
      <path class="st3" d="M292.73,257.37c5.72.51,11.81,1.19,1.14,2.28-12.19,1.25-16.89-3.69-1.14-2.28"/>
      <path class="st3" d="M335.5,253.95c3.22.24,9.61.23,11.12,2.85l-50.75-2.28c-.56-.19-.16-1.63-.29-1.71,8.94-.11,16.66.14,25.95.57.21,0,.34.96,3.42,1.14,1.55.09,6.94-.83,10.55-.57"/>
      <path class="st3" d="M314.69,235.7c3.68-1.4,25,.12,29.94,2l-28.23.29-2.57-.86c-.27-.39.54-1.31.86-1.43"/>
      <path class="st3" d="M341.49,244.26c1.55-.5,5.05-.22,5.99,1.43-.05,1.58-9.58-.26-5.99-1.43"/>
      <path class="st3" d="M350.04,239.69c1.67.04,4.96-.57,4.85,2-.54.62-6.18.52-4.85-2"/>
      <path class="st3" d="M332.93,241.41c.84-.27,5.97.06,5.99.86-1,2.23-9.34.24-5.99-.86"/>
      <path class="st3" d="M254.53,318.39c-1.52,1.06-2.77,2.59-4.56,1.71-.12-1.94-.45-3.76-.57-5.7,4.84-2.04,4.64-.53,5.13,3.99"/>
      <path class="st3" d="M275.34,320.67c1.21.29,1.69,11.44-.57,10.83-1.44-1.29-1.42-11.31.57-10.83"/>
      <path class="st3" d="M269.07,323.52c.84.12,2.39,7.07.57,7.98-1.97.52-3.12-7.19-.57-7.98"/>
      <path class="st3" d="M264.5,332.08c1.42,1.75,2.39,4.68,0,6.27v-6.27Z"/>
      <path class="st3" d="M255.38,332.08c1.93.15,1.68,5.83,1.14,6.27-1.93,1.59-1.66-5.76-1.14-6.27"/>
      <path class="st3" d="M249.39,314.4c.12,1.94.45,3.76.57,5.7.1,1.55,1.93,16.54.29,16.54-2.07-5.5-1.54-11.48-3.14-17.11l-.57-32.79,1.71-.57c-.11,9.43.58,18.84,1.14,28.23"/>
      <path class="st3" d="M251.96,277.33l-.57,23.95c-.58,0-1.35-3.65-1.43-4.28-.32-2.55.63-20.2,2-19.67"/>
      <path class="st13" d="M393.84,206.46c-.06-.15-.11-.3-.16-.46-2.12-.37-4.03-5.23-7.73-5.67-3.24-.38-6.46,2.13-8.55,2.28-2.73.19-5.54-.12-8.27,0l-.14.56h0c2.11-.42,4.3-.15,6.37.41.09.03.17.06.25.1,7.09-1.45,15.5-2.76,16.32,5.21.7-.22,1.18-.62,1.71-1.14.09-.09.18-.16.27-.24-.04-.35-.08-.7-.08-1.05"/>
      <path class="st10" d="M220.96,203.38c-4.71,0-9.58-.08-14.26,0-9.31.16-18.6.71-27.94.57-1.83-.03-3.99-.53-5.7-.57-.51-.01-1.09.02-1.71,0-7.98-.21-15.9-.84-23.89-.13-.33.17-.71.28-1.17.27-1.02-.01-2,.05-3,0-3.88.39-10.59-.73-11.86,4.13-.73,2.8,1.15,10.49.57,11.98-.03.08-.11.12-.22.16-.27.9-.64,1.75-1.04,2.6.08.03.12.06.12.09-.52,2.59-1.07,3.54-1.14,7.13-.01.71,1.71,3.37-.28,3.42.04.96-.09,1.89-.5,2.8.03.13.04.26.06.4.26.43.51.88.72,1.36.77,1.79.41,3.08.57,4.56,1.18.19.93,1.08,1.14,1.71.05.15-.03.37,0,.57.06.42.07.63.57.57.89-6.46,1.18-18.11,1.71-25.38.37-4.97-3.24-10.21,1.43-13.97,23.89-1.29,47.95,1.07,71.85,0,3.1-.14,15.06-.16,16.25-2.28h-2.28Z"/>
      <path class="st1" d="M370.66,200.13c-3.46.04-6.8.03-10.26,0-.3,0-3.77,2.38-3.69-.82-1.54-.1-3.28-.77-4.43-.35-.44.16-.85.25-1.24.29-.17.74-.36,1.65-1.19,2.02-1.17.53-2.81-.6-3.14-.57-2.25.17-2.45-.6-2.85-.57-.19.01.86,1.11-2.85,1.14-2.94.03-5.89-.02-8.84,0l.06-1.53c-.3-.03-.61-.06-.91-.11l.56,3.93c11.71-.37,23.9-.08,35.64-.34.18-.04.36-.07.54-.07.31,0,.63.01.94.03,1.19-.23,2.41-.25,3.61-.12.68-.03,1.36-.04,2.04-.08l.57-2.28c-1.76.08-3.67-.58-4.56-.57"/>
      <path class="st10" d="M331.45,199.65c-.65-.1-1.3-.25-1.95-.45-.71.03-1.43.09-2.14.24-.92.19-1.75.42-2.56.62-.78.78-1.82,1.15-2.88,1.19.02.42-.66.58-3.04.55-1.79-.02-2.59-.2-2.97-.53-.35.1-.73.16-1.13.18l.11.64c-.53.64-3.51.14-4.56.29-1.92.27-3.77.32-5.7.57l.29,1.14c9.04.1,18.07-.29,27.09-.57l-.55-3.85Z"/>
      <path class="st16" d="M302.19,373.89c-.42,0-.8-.05-1.16-.13-.26.73-.72,1.36-1.45,1.88-2.74,1.96-54.31,2.72-60.98,2.06.93,4.83,8.66.98,11.08,1.75.46.14.76.3.98.46.17-.02.33-.05.52-.06.03,0,.06,0,.09,0,.25-.07.49-.14.75-.18.03,0,.05,0,.08,0,.23-.12.5-.2.79-.23,1.76-.84,13.08.72,15.59.66,4.96-.12,11.54.28,15.91.06,3.04-.15,14.46-1.2,16.64-2.79.61-.44,1.04-.98,1.36-1.58,0,0,0-.01,0-.02.09-.37.2-.74.3-1.11.01-.27.06-.54.13-.8-.2.02-.4.05-.62.05"/>
      <path class="st10" d="M132.23,267.59c0-2.87.06-5.84,0-8.69-.13-5.68-.56-11.34-.45-17.04.02-1.11.42-2.43.45-3.48,0-.31-.01-.67,0-1.04.13-3.94.49-7.86.32-11.8-.71-.19-1.34-.63-1.75-1.36-.02-.04-.04-.07-.06-.11.07,11.66-.98,23.36-.31,35,.11,1.89.12,9.18,1.79,9.91v-1.39Z"/>
      <path class="st7" d="M377.23,284.36c.07,0,.14,0,.22,0,1.43-.31,2.87-.37,4.32-.29,2-.49,4.26-.17,6.32.03.11-.19.19-.39.27-.61-.08-.21-.16-.43-.23-.65-4.36-.29-8.86-.87-13.35-1.35-.07,0-.13.01-.21.01-8.91,0-17.77.09-26.58-.68-15.53.38-31.16,1.32-46.67.87-.02.12-.05.23-.07.35-.11.71-.03,1.42.14,2.11,3.61.51,6.93.17,10.68.33,3.76.17,7.72.28,11.47.76,5.96-2.23,7.64-.34,12.23-.61,1.69-.1,2.91-.6,4.59-.66,2.02-.07,4.09.08,6.12.04,4-.09,8.2.03,12.23.08,5.82.08,12.62-.49,18.52.26"/>
      <path class="st16" d="M299.85,111.04c-.47-.4-1.44-.76-2.67-1.09-.16-.01-.32-.03-.49-.03-.6,0-1.21.06-1.82.12-.31.04-.61.08-.92.1-.19.05-.39.08-.61.08-.07.51-.17,1.02-.33,1.51,1.73.17,3.13.36,4.12.55.02,0,.04,0,.05.01.73.15,1.23.3,1.43.47,1.18.98,1.52,2.3,1.52,3.93.02.08.04.17.05.25.17.38.25.8.23,1.22.01.09.03.17.05.25l1.29,1.76c-.14-3.13.52-7.09-1.88-9.12"/>
    </g>
  </g>
</svg>