<svg xmlns="http://www.w3.org/2000/svg" viewBox="0 0 1009 1009" width="1009" height="1009" preserveAspectRatio="xMidYMid meet" style="width: 100%; height: 100%; transform: translate3d(0px, 0px, 0px); content-visibility: visible;"><defs><clipPath id="__lottie_element_6099"><rect width="1009" height="1009" x="0" y="0"></rect></clipPath><radialGradient id="__lottie_element_6106" spreadMethod="pad" gradientUnits="userSpaceOnUse" cx="0" cy="0" r="100" fx="0" fy="0"><stop offset="22%" stop-color="rgb(157,49,57)"></stop><stop offset="84%" stop-color="rgb(109,36,40)"></stop><stop offset="100%" stop-color="rgb(61,22,22)"></stop></radialGradient><clipPath id="__lottie_element_6111"><path d="M0,0 L1009,0 L1009,1009 L0,1009z"></path></clipPath><clipPath id="__lottie_element_6115"><path d="M0,0 L1009,0 L1009,1009 L0,1009z"></path></clipPath><clipPath id="__lottie_element_6119"><path d="M0,0 L1009,0 L1009,1009 L0,1009z"></path></clipPath><clipPath id="__lottie_element_6123"><path d="M0,0 L1009,0 L1009,1009 L0,1009z"></path></clipPath></defs><g clip-path="url(#__lottie_element_6099)"><g transform="matrix(9.952349662780762,0,0,9.952349662780762,-2.24896240234375,0.31201171875)" opacity="1" style="display: block;"><g opacity="1" transform="matrix(1,0,0,1,49.9900016784668,49.98899841308594)"><path fill="rgb(157,48,56)" fill-opacity="1" d=" M47.4900016784668,0 C47.4900016784668,26.22800064086914 26.226999282836914,47.48899841308594 0,47.48899841308594 C-26.22800064086914,47.48899841308594 -47.4900016784668,26.22800064086914 -47.4900016784668,0 C-47.4900016784668,-26.22800064086914 -26.22800064086914,-47.48899841308594 0,-47.48899841308594 C26.226999282836914,-47.48899841308594 47.4900016784668,-26.22800064086914 47.4900016784668,0z"></path><path stroke-linecap="butt" stroke-linejoin="miter" fill-opacity="0" stroke-miterlimit="10" stroke="rgb(255,254,255)" stroke-opacity="1" stroke-width="1.5" d=" M47.4900016784668,0 C47.4900016784668,26.22800064086914 26.226999282836914,47.48899841308594 0,47.48899841308594 C-26.22800064086914,47.48899841308594 -47.4900016784668,26.22800064086914 -47.4900016784668,0 C-47.4900016784668,-26.22800064086914 -26.22800064086914,-47.48899841308594 0,-47.48899841308594 C26.226999282836914,-47.48899841308594 47.4900016784668,-26.22800064086914 47.4900016784668,0z"></path></g></g><g transform="matrix(0.9518100023269653,0,0,0.9518100023269653,497.2799987792969,500.66900634765625)" opacity="1" style="display: block;"><g opacity="1" transform="matrix(4.398620128631592,0,0,4.398620128631592,-0.6909999847412109,-2.690999984741211)"><path fill="url(#__lottie_element_6106)" fill-opacity="1" d=" M0,-111.30850219726562 C61.4311637878418,-111.30850219726562 111.30850219726562,-61.4311637878418 111.30850219726562,0 C111.30850219726562,61.4311637878418 61.4311637878418,111.30850219726562 0,111.30850219726562 C-61.4311637878418,111.30850219726562 -111.30850219726562,61.4311637878418 -111.30850219726562,0 C-111.30850219726562,-61.4311637878418 -61.4311637878418,-111.30850219726562 0,-111.30850219726562z"></path><path stroke-linecap="butt" stroke-linejoin="miter" fill-opacity="0" stroke-miterlimit="4" stroke="rgb(124,122,110)" stroke-opacity="1" stroke-width="0" d=" M0,-111.30850219726562 C61.4311637878418,-111.30850219726562 111.30850219726562,-61.4311637878418 111.30850219726562,0 C111.30850219726562,61.4311637878418 61.4311637878418,111.30850219726562 0,111.30850219726562 C-61.4311637878418,111.30850219726562 -111.30850219726562,61.4311637878418 -111.30850219726562,0 C-111.30850219726562,-61.4311637878418 -61.4311637878418,-111.30850219726562 0,-111.30850219726562z"></path></g></g><g transform="matrix(11.894089698791504,0,0,11.894089698791504,266.1861267089844,100.16220092773438)" opacity="1" style="display: block;"><g opacity="1" transform="matrix(1,0,0,1,19.79400062561035,24.73699951171875)"><path fill="rgb(255,254,255)" fill-opacity="1" d=" M-0.012000000104308128,-7.708000183105469 C-0.012000000104308128,-7.708000183105469 4.770999908447266,-1.9539999961853027 4.770999908447266,-1.9539999961853027 C4.770999908447266,-1.9539999961853027 -0.012000000104308128,7.708000183105469 -0.012000000104308128,7.708000183105469 C-0.012000000104308128,7.708000183105469 -4.770999908447266,-1.9259999990463257 -4.770999908447266,-1.9259999990463257 C-4.770999908447266,-1.9259999990463257 -0.012000000104308128,-7.708000183105469 -0.012000000104308128,-7.708000183105469z"></path></g><g opacity="1" transform="matrix(1,0,0,1,19.781999588012695,33.39799880981445)"><path fill="rgb(255,255,255)" fill-opacity="1" d=" M-12.822999954223633,-28.113000869750977 C-12.822999954223633,-28.113000869750977 -8.680999755859375,-24.937000274658203 -8.680999755859375,-24.937000274658203 C-8.680999755859375,-24.937000274658203 -0.7860000133514404,-33.14799880981445 -0.7860000133514404,-33.14799880981445 C-0.7860000133514404,-33.14799880981445 7.5320000648498535,-25.256999969482422 7.5320000648498535,-25.256999969482422 C7.5320000648498535,-25.256999969482422 12.574000358581543,-27.746000289916992 12.574000358581543,-27.746000289916992 C12.574000358581543,-27.746000289916992 11.725000381469727,-21.850000381469727 11.725000381469727,-21.850000381469727 C11.725000381469727,-21.850000381469727 18.2549991607666,-13.447999954223633 18.2549991607666,-13.447999954223633 C18.2549991607666,-13.447999954223633 11.369999885559082,-7.40500020980835 11.871999740600586,-4.894999980926514 C12.190999984741211,-3.2990000247955322 19.531999588012695,-8.725000381469727 19.531999588012695,-8.725000381469727 C19.531999588012695,-8.725000381469727 14.170000076293945,4.040999889373779 14.170000076293945,4.040999889373779 C14.170000076293945,4.040999889373779 11.744000434875488,-0.4480000138282776 10.276000022888184,-0.3630000054836273 C8.354000091552734,-0.25200000405311584 6.263000011444092,4.071000099182129 5.872000217437744,5.955999851226807 C5.4120001792907715,8.175999641418457 5.617000102996826,15.020000457763672 5.617000102996826,15.020000457763672 C5.617000102996826,15.020000457763672 9.845000267028809,17.499000549316406 9.845000267028809,17.499000549316406 C9.845000267028809,17.499000549316406 7.005000114440918,20.530000686645508 6.318999767303467,21.722000122070312 C5.480000019073486,23.179000854492188 2.058000087738037,33.14799880981445 2.058000087738037,33.14799880981445 C2.058000087738037,33.14799880981445 1.9789999723434448,10.041000366210938 3.063999891281128,1.9989999532699585 C3.430000066757202,-0.7200000286102295 8.553000450134277,-4.894999980926514 8.29800033569336,-8.02299976348877 C8.208999633789062,-9.112000465393066 8.621999740600586,-13.338000297546387 8.170000076293945,-14.725000381469727 C7.491000175476074,-16.805999755859375 3.6989998817443848,-20.312000274658203 1.7869999408721924,-20.851999282836914 C0.2809999883174896,-21.277999877929688 -2.8980000019073486,-21.084999084472656 -4.020999908447266,-20.214000701904297 C-5.39300012588501,-19.150999069213867 -8.446000099182129,-16.368000030517578 -8.616999626159668,-13.831000328063965 C-8.76099967956543,-11.696999549865723 -8.86400032043457,-7.065999984741211 -8.043000221252441,-5.150000095367432 C-7.314000129699707,-3.4509999752044678 -5.177000045776367,-1.0429999828338623 -4.2769999504089355,0.5270000100135803 C-3.359999895095825,2.127000093460083 -1.559000015258789,5.711999893188477 -1.475000023841858,7.616000175476074 C-1.3739999532699585,9.878000259399414 -1.475000023841858,16.30500030517578 -1.475000023841858,16.30500030517578 C-1.475000023841858,16.30500030517578 -1.475000023841858,24.634000778198242 -1.475000023841858,24.634000778198242 C-1.475000023841858,24.634000778198242 -8.557000160217285,12.555000305175781 -10.281000137329102,8.979999542236328 C-10.482999801635742,8.562000274658203 -10.786999702453613,7.232999801635742 -10.786999702453613,7.232999801635742 C-10.786999702453613,7.232999801635742 -9.168999671936035,8.262999534606934 -8.809000015258789,8.63700008392334 C-8.373000144958496,9.09000015258789 -7.085999965667725,9.911999702453613 -6.511000156402588,9.657999992370605 C-5.679999828338623,9.291999816894531 -5.696000099182129,7.239999771118164 -5.809000015258789,6.339000225067139 C-5.932000160217285,5.353000164031982 -6.401000022888184,3.375999927520752 -7.020999908447266,2.5989999771118164 C-7.698999881744385,1.75 -9.513999938964844,-0.5230000019073486 -10.595999717712402,-0.4269999861717224 C-11.293000221252441,-0.36399999260902405 -13.14900016784668,2.5989999771118164 -13.14900016784668,2.5989999771118164 C-13.14900016784668,2.5989999771118164 -19.531999588012695,-8.086000442504883 -19.531999588012695,-8.086000442504883 C-19.531999588012695,-8.086000442504883 -14.819999694824219,-4.980000019073486 -13.020999908447266,-5.0229997634887695 C-12.407999992370605,-5.0370001792907715 -11.642000198364258,-5.940999984741211 -11.616999626159668,-6.553999900817871 C-11.562000274658203,-7.909999847412109 -12.385000228881836,-9.133999824523926 -13.020999908447266,-10.00100040435791 C-13.73799991607666,-10.977999687194824 -18.893999099731445,-12.682000160217285 -18.893999099731445,-12.682000160217285 C-18.893999099731445,-12.682000160217285 -18.929000854492188,-12.736000061035156 -18.893999099731445,-12.682000160217285 C-18.893999099731445,-12.682000160217285 -14.79699993133545,-18.577999114990234 -14.79699993133545,-18.577999114990234 C-14.79699993133545,-18.577999114990234 -12.765999794006348,-21.874000549316406 -12.765999794006348,-21.874000549316406 C-12.765999794006348,-21.874000549316406 -12.822999954223633,-28.113000869750977 -12.822999954223633,-28.113000869750977z"></path></g></g><g clip-path="url(#__lottie_element_6111)" transform="matrix(1,0,0,1,0,0)" opacity="1" style="display: block;"><g transform="matrix(-2.6642231941223145,-1.5381900072097778,-1.2064299583435059,2.0895979404449463,1643.5303955078125,-62.2469482421875)" opacity="1" style="display: block;"><g opacity="1" transform="matrix(1.0199999809265137,0,0,0.9100000262260437,24.986000061035156,58.21099853515625)"><path fill="rgb(95,93,91)" fill-opacity="1" d=" M3.73799991607666,0.09300000220537186 C3.73799991607666,0.09300000220537186 -3.73799991607666,0.06599999964237213 -3.73799991607666,0.06599999964237213 C-1.2699999809265137,-0.09300000220537186 1.2619999647140503,-0.06499999761581421 3.73799991607666,0.09300000220537186z"></path></g><g opacity="1" transform="matrix(1.0199999809265137,0,0,0.9100000262260437,19.684999465942383,127.69599914550781)"><path fill="rgb(47,25,7)" fill-opacity="1" d=" M8.406000137329102,-119.50800323486328 C8.406000137329102,-119.50800323486328 7.547999858856201,111.61199951171875 7.547999858856201,111.61199951171875 C7.531000137329102,115.99600219726562 3.934999942779541,119.56700134277344 -0.4490000009536743,119.5510025024414 C-4.834000110626221,119.53399658203125 -8.406000137329102,115.93699645996094 -8.388999938964844,111.5530014038086 C-8.388999938964844,111.5530014038086 -7.531000137329102,-119.56700134277344 -7.531000137329102,-119.56700134277344 C-7.531000137329102,-119.56700134277344 8.406000137329102,-119.50800323486328 8.406000137329102,-119.50800323486328z"></path></g><g opacity="1" transform="matrix(1.0199999809265137,0,0,0.9100000262260437,19.684999465942383,127.69599914550781)"><path stroke-linecap="butt" stroke-linejoin="miter" fill-opacity="0" stroke-miterlimit="10" stroke="rgb(0,0,0)" stroke-opacity="1" stroke-width="2" d=" M8.406000137329102,-119.50800323486328 C8.406000137329102,-119.50800323486328 7.547999858856201,111.61199951171875 7.547999858856201,111.61199951171875 C7.531000137329102,115.99600219726562 3.934999942779541,119.56700134277344 -0.4490000009536743,119.5510025024414 C-4.834000110626221,119.53399658203125 -8.406000137329102,115.93699645996094 -8.388999938964844,111.5530014038086 C-8.388999938964844,111.5530014038086 -7.531000137329102,-119.56700134277344 -7.531000137329102,-119.56700134277344 C-7.531000137329102,-119.56700134277344 8.406000137329102,-119.50800323486328 8.406000137329102,-119.50800323486328z"></path></g><g opacity="1" transform="matrix(1.0199999809265137,0,0,0.9100000262260437,24.63599967956543,127.74600219726562)"><path fill="rgb(40,23,10)" fill-opacity="1" d=" M2.5460000038146973,-118.5510025024414 C2.5460000038146973,-118.5510025024414 -3.1570000648498535,-118.5719985961914 -3.1570000648498535,-118.5719985961914 C-3.1570000648498535,-118.5719985961914 -4.034999847412109,118.09500122070312 -4.034999847412109,118.09500122070312 C-4.034999847412109,118.09500122070312 -0.6620000004768372,118.572998046875 1.687000036239624,112.88099670410156 C4.034999847412109,107.18800354003906 2.5460000038146973,-118.5510025024414 2.5460000038146973,-118.5510025024414z"></path></g><g opacity="1" transform="matrix(1.0199999809265137,0,0,0.9100000262260437,24.986000061035156,58.21099853515625)"><path fill="rgb(95,93,91)" fill-opacity="1" d=" M3.73799991607666,0.09300000220537186 C3.73799991607666,0.09300000220537186 -3.73799991607666,0.06599999964237213 -3.73799991607666,0.06599999964237213 C-1.2699999809265137,-0.09300000220537186 1.2619999647140503,-0.06499999761581421 3.73799991607666,0.09300000220537186z"></path></g><g opacity="1" transform="matrix(1.0199999809265137,0,0,0.9100000262260437,19.684999465942383,127.69599914550781)"><path fill="rgb(71,40,14)" fill-opacity="1" d=" M8.406000137329102,-119.50800323486328 C8.406000137329102,-119.50800323486328 7.547999858856201,111.61199951171875 7.547999858856201,111.61199951171875 C7.531000137329102,115.99600219726562 3.934999942779541,119.56700134277344 -0.4490000009536743,119.5510025024414 C-4.834000110626221,119.53399658203125 -8.406000137329102,115.93699645996094 -8.388999938964844,111.5530014038086 C-8.388999938964844,111.5530014038086 -7.531000137329102,-119.56700134277344 -7.531000137329102,-119.56700134277344 C-7.531000137329102,-119.56700134277344 8.406000137329102,-119.50800323486328 8.406000137329102,-119.50800323486328z"></path></g><g opacity="1" transform="matrix(1.0199999809265137,0,0,0.9100000262260437,19.684999465942383,127.69599914550781)"><path stroke-linecap="butt" stroke-linejoin="miter" fill-opacity="0" stroke-miterlimit="10" stroke="rgb(0,0,0)" stroke-opacity="1" stroke-width="2" d=" M8.406000137329102,-119.50800323486328 C8.406000137329102,-119.50800323486328 7.547999858856201,111.61199951171875 7.547999858856201,111.61199951171875 C7.531000137329102,115.99600219726562 3.934999942779541,119.56700134277344 -0.4490000009536743,119.5510025024414 C-4.834000110626221,119.53399658203125 -8.406000137329102,115.93699645996094 -8.388999938964844,111.5530014038086 C-8.388999938964844,111.5530014038086 -7.531000137329102,-119.56700134277344 -7.531000137329102,-119.56700134277344 C-7.531000137329102,-119.56700134277344 8.406000137329102,-119.50800323486328 8.406000137329102,-119.50800323486328z"></path></g><g opacity="1" transform="matrix(1.0199999809265137,0,0,0.9100000262260437,24.63599967956543,127.74600219726562)"><path fill="rgb(21,12,4)" fill-opacity="1" d=" M2.5460000038146973,-118.5510025024414 C2.5460000038146973,-118.5510025024414 -3.1570000648498535,-118.5719985961914 -3.1570000648498535,-118.5719985961914 C-3.1570000648498535,-118.5719985961914 -4.034999847412109,118.09500122070312 -4.034999847412109,118.09500122070312 C-4.034999847412109,118.09500122070312 -0.6620000004768372,118.572998046875 1.687000036239624,112.88099670410156 C4.034999847412109,107.18800354003906 2.5460000038146973,-118.5510025024414 2.5460000038146973,-118.5510025024414z"></path></g><g opacity="1" transform="matrix(1.1699999570846558,0,0,1.1699999570846558,68.572998046875,64.36900329589844)"><path fill="rgb(107,109,113)" fill-opacity="1" d=" M34.19599914550781,49.89799880981445 C34.19599914550781,49.89799880981445 18.974000930786133,30.15399932861328 -26.236000061035156,20.61199951171875 C-26.236000061035156,20.61199951171875 -35.63800048828125,17.774999618530273 -46.016998291015625,17.113000869750977 C-48.520999908447266,16.954999923706055 -51.082000732421875,16.927000045776367 -53.57600021362305,17.084999084472656 C-53.57600021362305,17.084999084472656 -61.07699966430664,17.05699920654297 -61.07699966430664,17.05699920654297 C-61.07699966430664,17.05699920654297 -60.95399856567383,-16.024999618530273 -60.95399856567383,-16.024999618530273 C-60.95399856567383,-16.024999618530273 -42.81700134277344,-15.958000183105469 -42.81700134277344,-15.958000183105469 C-42.81700134277344,-15.958000183105469 14.315999984741211,-25.562999725341797 34.19499969482422,-48.74599838256836 C35.18299865722656,-49.89799880981445 35.46500015258789,-48.74100112915039 35.46500015258789,-48.74100112915039 C35.46500015258789,-48.74100112915039 61.077999114990234,6.834000110626221 34.19599914550781,49.89799880981445z"></path></g><g opacity="1" transform="matrix(1.190000057220459,0,0,1.190000057220459,121.16799926757812,66.85800170898438)"><path fill="rgb(201,201,221)" fill-opacity="1" d=" M-19.836999893188477,43.994998931884766 C-19.836999893188477,43.994998931884766 7.849999904632568,1.3029999732971191 -19.510000228881836,-44.08100128173828 C-19.510000228881836,-44.08100128173828 -8.312999725341797,-56.358001708984375 -8.312999725341797,-56.358001708984375 C-8.312999725341797,-56.358001708984375 19.836999893188477,-23.259000778198242 6.9730000495910645,24.232999801635742 C6.9730000495910645,24.232999801635742 -1.6699999570846558,48.784000396728516 -8.729999542236328,56.358001708984375 C-8.729999542236328,56.358001708984375 -13.72700023651123,46.125999450683594 -19.836999893188477,43.994998931884766z"></path></g><g opacity="1" transform="matrix(1.2300000190734863,0,0,1.2300000190734863,120.44400024414062,37.47200012207031)"><path fill="rgb(245,244,246)" fill-opacity="1" d=" M-10.553000450134277,-0.7149999737739563 C-10.553000450134277,-0.7149999737739563 3.2300000190734863,-9.84000015258789 3.2300000190734863,-9.84000015258789 C3.2300000190734863,-9.84000015258789 10.553000450134277,8.739999771118164 10.553000450134277,8.739999771118164 C10.553000450134277,8.739999771118164 -7.132999897003174,9.84000015258789 -7.132999897003174,9.84000015258789 C-7.132999897003174,9.84000015258789 -10.553000450134277,-0.7149999737739563 -10.553000450134277,-0.7149999737739563z"></path></g><g opacity="1" transform="matrix(1.1699999570846558,0,0,1.1699999570846558,121.60900115966797,61.14899826049805)"><path fill="rgb(245,244,246)" fill-opacity="1" d=" M-9.095000267028809,-4.678999900817871 C-9.095000267028809,-4.678999900817871 9.095000267028809,-4.611000061035156 9.095000267028809,-4.611000061035156 C9.095000267028809,-4.611000061035156 8.442000389099121,4.678999900817871 8.442000389099121,4.678999900817871 C8.442000389099121,4.678999900817871 -8.942000389099121,4.613999843597412 -8.942000389099121,4.613999843597412 C-8.942000389099121,4.613999843597412 -9.095000267028809,-4.678999900817871 -9.095000267028809,-4.678999900817871z"></path></g><g opacity="1" transform="matrix(1.1699999570846558,0,0,1.1699999570846558,78.97599792480469,63.858001708984375)"><path stroke-linecap="butt" stroke-linejoin="miter" fill-opacity="0" stroke-miterlimit="10" stroke="rgb(0,0,0)" stroke-opacity="1" stroke-width="3" d=" M28.461000442504883,56.358001708984375 C9.71500015258789,25.895999908447266 -53.540000915527344,16.23200035095215 -53.540000915527344,16.23200035095215 C-53.540000915527344,16.23200035095215 -71.47699737548828,16.165000915527344 -71.47699737548828,16.165000915527344 C-71.47699737548828,16.165000915527344 -71.35399627685547,-16.91699981689453 -71.35399627685547,-16.91699981689453 C-71.35399627685547,-16.91699981689453 -53.41699981689453,-16.85099983215332 -53.41699981689453,-16.85099983215332 C-53.41699981689453,-16.85099983215332 9.907999992370605,-26.045000076293945 28.878999710083008,-56.358001708984375 C71.47699737548828,3.5889999866485596 28.461000442504883,56.358001708984375 28.461000442504883,56.358001708984375z"></path></g><g opacity="1" transform="matrix(1.1699999570846558,0,0,1.1699999570846558,110.0250015258789,63.814998626708984)"><path stroke-linecap="butt" stroke-linejoin="miter" fill-opacity="0" stroke-miterlimit="10" stroke="rgb(0,0,0)" stroke-opacity="1" stroke-width="3" d=" M-13.694999694824219,44.03799819946289 C-11.461999893188477,40.07400131225586 13.694999694824219,-2.378999948501587 -13.368000030517578,-44.03799819946289"></path></g><g opacity="1" transform="matrix(1.1699999570846558,0,0,1.1699999570846558,61.63999938964844,93.90599822998047)"><path fill="rgb(0,0,0)" fill-opacity="1" d=" M-52.529998779296875,-23.996999740600586 C-52.529998779296875,-23.996999740600586 -37.32600021362305,-23.940000534057617 -37.32600021362305,-23.940000534057617 C-37.32600021362305,-23.940000534057617 29.76300048828125,-19.658000946044922 52.5629997253418,12.696999549865723 C52.5629997253418,12.696999549865723 49.54800033569336,19.589000701904297 45.92499923706055,23.99799919128418 C45.92499923706055,23.99799919128418 28.601999282836914,-4.458000183105469 -36.428001403808594,-15.055000305175781 C-36.428001403808594,-15.055000305175781 -52.5620002746582,-15.230999946594238 -52.5620002746582,-15.230999946594238 C-52.5620002746582,-15.230999946594238 -52.529998779296875,-23.996999740600586 -52.529998779296875,-23.996999740600586z"></path></g><g opacity="1" transform="matrix(1.1699999570846558,0,0,1.1699999570846558,68.572998046875,64.36900329589844)"><path fill="rgb(107,109,113)" fill-opacity="1" d=" M34.19599914550781,49.89799880981445 C34.19599914550781,49.89799880981445 18.974000930786133,30.15399932861328 -26.236000061035156,20.61199951171875 C-26.236000061035156,20.61199951171875 -35.63800048828125,17.774999618530273 -46.016998291015625,17.113000869750977 C-48.520999908447266,16.954999923706055 -51.082000732421875,16.927000045776367 -53.57600021362305,17.084999084472656 C-53.57600021362305,17.084999084472656 -61.07699966430664,17.05699920654297 -61.07699966430664,17.05699920654297 C-61.07699966430664,17.05699920654297 -60.95399856567383,-16.024999618530273 -60.95399856567383,-16.024999618530273 C-60.95399856567383,-16.024999618530273 -42.81700134277344,-15.958000183105469 -42.81700134277344,-15.958000183105469 C-42.81700134277344,-15.958000183105469 14.315999984741211,-25.562999725341797 34.19499969482422,-48.74599838256836 C35.18299865722656,-49.89799880981445 35.46500015258789,-48.74100112915039 35.46500015258789,-48.74100112915039 C35.46500015258789,-48.74100112915039 61.077999114990234,6.834000110626221 34.19599914550781,49.89799880981445z"></path></g><g opacity="1" transform="matrix(1.0399999618530273,0,0,1.0399999618530273,116.16799926757812,63.858001708984375)"><path fill="rgb(201,201,221)" fill-opacity="1" d=" M-19.836999893188477,43.994998931884766 C-19.836999893188477,43.994998931884766 7.849999904632568,1.3029999732971191 -19.510000228881836,-44.08100128173828 C-19.510000228881836,-44.08100128173828 -8.312999725341797,-56.358001708984375 -8.312999725341797,-56.358001708984375 C-8.312999725341797,-56.358001708984375 19.836999893188477,-23.259000778198242 6.9730000495910645,24.232999801635742 C6.9730000495910645,24.232999801635742 -1.6699999570846558,48.784000396728516 -8.729999542236328,56.358001708984375 C-8.729999542236328,56.358001708984375 -13.72700023651123,46.125999450683594 -19.836999893188477,43.994998931884766z"></path></g><g opacity="1" transform="matrix(1.1699999570846558,0,0,1.1699999570846558,117.44400024414062,37.47200012207031)"><path fill="rgb(245,244,246)" fill-opacity="1" d=" M-10.553000450134277,-0.7149999737739563 C-10.553000450134277,-0.7149999737739563 3.2300000190734863,-9.84000015258789 3.2300000190734863,-9.84000015258789 C3.2300000190734863,-9.84000015258789 10.553000450134277,8.739999771118164 10.553000450134277,8.739999771118164 C10.553000450134277,8.739999771118164 -7.132999897003174,9.84000015258789 -7.132999897003174,9.84000015258789 C-7.132999897003174,9.84000015258789 -10.553000450134277,-0.7149999737739563 -10.553000450134277,-0.7149999737739563z"></path></g><g opacity="1" transform="matrix(1.1699999570846558,0,0,1.1699999570846558,117.60900115966797,61.14899826049805)"><path fill="rgb(245,244,246)" fill-opacity="1" d=" M-9.095000267028809,-4.678999900817871 C-9.095000267028809,-4.678999900817871 9.095000267028809,-4.611000061035156 9.095000267028809,-4.611000061035156 C9.095000267028809,-4.611000061035156 8.442000389099121,4.678999900817871 8.442000389099121,4.678999900817871 C8.442000389099121,4.678999900817871 -8.942000389099121,4.613999843597412 -8.942000389099121,4.613999843597412 C-8.942000389099121,4.613999843597412 -9.095000267028809,-4.678999900817871 -9.095000267028809,-4.678999900817871z"></path></g><g opacity="1" transform="matrix(1.1699999570846558,0,0,1.1699999570846558,78.97599792480469,63.858001708984375)"><path stroke-linecap="butt" stroke-linejoin="miter" fill-opacity="0" stroke-miterlimit="10" stroke="rgb(0,0,0)" stroke-opacity="1" stroke-width="3" d=" M28.461000442504883,56.358001708984375 C9.71500015258789,25.895999908447266 -53.540000915527344,16.23200035095215 -53.540000915527344,16.23200035095215 C-53.540000915527344,16.23200035095215 -71.47699737548828,16.165000915527344 -71.47699737548828,16.165000915527344 C-71.47699737548828,16.165000915527344 -71.35399627685547,-16.91699981689453 -71.35399627685547,-16.91699981689453 C-71.35399627685547,-16.91699981689453 -53.41699981689453,-16.85099983215332 -53.41699981689453,-16.85099983215332 C-53.41699981689453,-16.85099983215332 9.907999992370605,-26.045000076293945 28.878999710083008,-56.358001708984375 C71.47699737548828,3.5889999866485596 28.461000442504883,56.358001708984375 28.461000442504883,56.358001708984375z"></path></g><g opacity="1" transform="matrix(1.2000000476837158,0,0,1.2000000476837158,110.0250015258789,63.814998626708984)"><path stroke-linecap="butt" stroke-linejoin="miter" fill-opacity="0" stroke-miterlimit="10" stroke="rgb(0,0,0)" stroke-opacity="1" stroke-width="3" d=" M-13.694999694824219,44.03799819946289 C-11.461999893188477,40.07400131225586 13.694999694824219,-2.378999948501587 -13.368000030517578,-44.03799819946289"></path></g><g opacity="1" transform="matrix(1.1799999475479126,0,0,1.1799999475479126,61.63999938964844,93.90599822998047)"><path fill="rgb(0,0,0)" fill-opacity="1" d=" M-52.529998779296875,-23.996999740600586 C-52.529998779296875,-23.996999740600586 -37.32600021362305,-23.940000534057617 -37.32600021362305,-23.940000534057617 C-37.32600021362305,-23.940000534057617 29.76300048828125,-19.658000946044922 52.5629997253418,12.696999549865723 C52.5629997253418,12.696999549865723 49.54800033569336,19.589000701904297 45.92499923706055,23.99799919128418 C45.92499923706055,23.99799919128418 28.601999282836914,-4.458000183105469 -36.428001403808594,-15.055000305175781 C-36.428001403808594,-15.055000305175781 -52.5620002746582,-15.230999946594238 -52.5620002746582,-15.230999946594238 C-52.5620002746582,-15.230999946594238 -52.529998779296875,-23.996999740600586 -52.529998779296875,-23.996999740600586z"></path></g></g></g><g clip-path="url(#__lottie_element_6115)" transform="matrix(-0.9980199933052063,0,0,1,1016.0010986328125,0)" opacity="1" style="display: block;"><g transform="matrix(-2.6642231941223145,-1.5381900072097778,-1.2064299583435059,2.0895979404449463,1643.5303955078125,-62.2469482421875)" opacity="1" style="display: block;"><g opacity="1" transform="matrix(1.0199999809265137,0,0,0.9100000262260437,24.986000061035156,58.21099853515625)"><path fill="rgb(95,93,91)" fill-opacity="1" d=" M3.73799991607666,0.09300000220537186 C3.73799991607666,0.09300000220537186 -3.73799991607666,0.06599999964237213 -3.73799991607666,0.06599999964237213 C-1.2699999809265137,-0.09300000220537186 1.2619999647140503,-0.06499999761581421 3.73799991607666,0.09300000220537186z"></path></g><g opacity="1" transform="matrix(1.0199999809265137,0,0,0.9100000262260437,19.684999465942383,127.69599914550781)"><path fill="rgb(47,25,7)" fill-opacity="1" d=" M8.406000137329102,-119.50800323486328 C8.406000137329102,-119.50800323486328 7.547999858856201,111.61199951171875 7.547999858856201,111.61199951171875 C7.531000137329102,115.99600219726562 3.934999942779541,119.56700134277344 -0.4490000009536743,119.5510025024414 C-4.834000110626221,119.53399658203125 -8.406000137329102,115.93699645996094 -8.388999938964844,111.5530014038086 C-8.388999938964844,111.5530014038086 -7.531000137329102,-119.56700134277344 -7.531000137329102,-119.56700134277344 C-7.531000137329102,-119.56700134277344 8.406000137329102,-119.50800323486328 8.406000137329102,-119.50800323486328z"></path></g><g opacity="1" transform="matrix(1.0199999809265137,0,0,0.9100000262260437,19.684999465942383,127.69599914550781)"><path stroke-linecap="butt" stroke-linejoin="miter" fill-opacity="0" stroke-miterlimit="10" stroke="rgb(0,0,0)" stroke-opacity="1" stroke-width="2" d=" M8.406000137329102,-119.50800323486328 C8.406000137329102,-119.50800323486328 7.547999858856201,111.61199951171875 7.547999858856201,111.61199951171875 C7.531000137329102,115.99600219726562 3.934999942779541,119.56700134277344 -0.4490000009536743,119.5510025024414 C-4.834000110626221,119.53399658203125 -8.406000137329102,115.93699645996094 -8.388999938964844,111.5530014038086 C-8.388999938964844,111.5530014038086 -7.531000137329102,-119.56700134277344 -7.531000137329102,-119.56700134277344 C-7.531000137329102,-119.56700134277344 8.406000137329102,-119.50800323486328 8.406000137329102,-119.50800323486328z"></path></g><g opacity="1" transform="matrix(1.0199999809265137,0,0,0.9100000262260437,24.63599967956543,127.74600219726562)"><path fill="rgb(40,23,10)" fill-opacity="1" d=" M2.5460000038146973,-118.5510025024414 C2.5460000038146973,-118.5510025024414 -3.1570000648498535,-118.5719985961914 -3.1570000648498535,-118.5719985961914 C-3.1570000648498535,-118.5719985961914 -4.034999847412109,118.09500122070312 -4.034999847412109,118.09500122070312 C-4.034999847412109,118.09500122070312 -0.6620000004768372,118.572998046875 1.687000036239624,112.88099670410156 C4.034999847412109,107.18800354003906 2.5460000038146973,-118.5510025024414 2.5460000038146973,-118.5510025024414z"></path></g><g opacity="1" transform="matrix(1.0199999809265137,0,0,0.9100000262260437,24.986000061035156,58.21099853515625)"><path fill="rgb(95,93,91)" fill-opacity="1" d=" M3.73799991607666,0.09300000220537186 C3.73799991607666,0.09300000220537186 -3.73799991607666,0.06599999964237213 -3.73799991607666,0.06599999964237213 C-1.2699999809265137,-0.09300000220537186 1.2619999647140503,-0.06499999761581421 3.73799991607666,0.09300000220537186z"></path></g><g opacity="1" transform="matrix(1.0199999809265137,0,0,0.9100000262260437,19.684999465942383,127.69599914550781)"><path fill="rgb(71,40,14)" fill-opacity="1" d=" M8.406000137329102,-119.50800323486328 C8.406000137329102,-119.50800323486328 7.547999858856201,111.61199951171875 7.547999858856201,111.61199951171875 C7.531000137329102,115.99600219726562 3.934999942779541,119.56700134277344 -0.4490000009536743,119.5510025024414 C-4.834000110626221,119.53399658203125 -8.406000137329102,115.93699645996094 -8.388999938964844,111.5530014038086 C-8.388999938964844,111.5530014038086 -7.531000137329102,-119.56700134277344 -7.531000137329102,-119.56700134277344 C-7.531000137329102,-119.56700134277344 8.406000137329102,-119.50800323486328 8.406000137329102,-119.50800323486328z"></path></g><g opacity="1" transform="matrix(1.0199999809265137,0,0,0.9100000262260437,19.684999465942383,127.69599914550781)"><path stroke-linecap="butt" stroke-linejoin="miter" fill-opacity="0" stroke-miterlimit="10" stroke="rgb(0,0,0)" stroke-opacity="1" stroke-width="2" d=" M8.406000137329102,-119.50800323486328 C8.406000137329102,-119.50800323486328 7.547999858856201,111.61199951171875 7.547999858856201,111.61199951171875 C7.531000137329102,115.99600219726562 3.934999942779541,119.56700134277344 -0.4490000009536743,119.5510025024414 C-4.834000110626221,119.53399658203125 -8.406000137329102,115.93699645996094 -8.388999938964844,111.5530014038086 C-8.388999938964844,111.5530014038086 -7.531000137329102,-119.56700134277344 -7.531000137329102,-119.56700134277344 C-7.531000137329102,-119.56700134277344 8.406000137329102,-119.50800323486328 8.406000137329102,-119.50800323486328z"></path></g><g opacity="1" transform="matrix(1.0199999809265137,0,0,0.9100000262260437,24.63599967956543,127.74600219726562)"><path fill="rgb(21,12,4)" fill-opacity="1" d=" M2.5460000038146973,-118.5510025024414 C2.5460000038146973,-118.5510025024414 -3.1570000648498535,-118.5719985961914 -3.1570000648498535,-118.5719985961914 C-3.1570000648498535,-118.5719985961914 -4.034999847412109,118.09500122070312 -4.034999847412109,118.09500122070312 C-4.034999847412109,118.09500122070312 -0.6620000004768372,118.572998046875 1.687000036239624,112.88099670410156 C4.034999847412109,107.18800354003906 2.5460000038146973,-118.5510025024414 2.5460000038146973,-118.5510025024414z"></path></g><g opacity="1" transform="matrix(1.1699999570846558,0,0,1.1699999570846558,68.572998046875,64.36900329589844)"><path fill="rgb(107,109,113)" fill-opacity="1" d=" M34.19599914550781,49.89799880981445 C34.19599914550781,49.89799880981445 18.974000930786133,30.15399932861328 -26.236000061035156,20.61199951171875 C-26.236000061035156,20.61199951171875 -35.63800048828125,17.774999618530273 -46.016998291015625,17.113000869750977 C-48.520999908447266,16.954999923706055 -51.082000732421875,16.927000045776367 -53.57600021362305,17.084999084472656 C-53.57600021362305,17.084999084472656 -61.07699966430664,17.05699920654297 -61.07699966430664,17.05699920654297 C-61.07699966430664,17.05699920654297 -60.95399856567383,-16.024999618530273 -60.95399856567383,-16.024999618530273 C-60.95399856567383,-16.024999618530273 -42.81700134277344,-15.958000183105469 -42.81700134277344,-15.958000183105469 C-42.81700134277344,-15.958000183105469 14.315999984741211,-25.562999725341797 34.19499969482422,-48.74599838256836 C35.18299865722656,-49.89799880981445 35.46500015258789,-48.74100112915039 35.46500015258789,-48.74100112915039 C35.46500015258789,-48.74100112915039 61.077999114990234,6.834000110626221 34.19599914550781,49.89799880981445z"></path></g><g opacity="1" transform="matrix(1.190000057220459,0,0,1.190000057220459,121.16799926757812,66.85800170898438)"><path fill="rgb(201,201,221)" fill-opacity="1" d=" M-19.836999893188477,43.994998931884766 C-19.836999893188477,43.994998931884766 7.849999904632568,1.3029999732971191 -19.510000228881836,-44.08100128173828 C-19.510000228881836,-44.08100128173828 -8.312999725341797,-56.358001708984375 -8.312999725341797,-56.358001708984375 C-8.312999725341797,-56.358001708984375 19.836999893188477,-23.259000778198242 6.9730000495910645,24.232999801635742 C6.9730000495910645,24.232999801635742 -1.6699999570846558,48.784000396728516 -8.729999542236328,56.358001708984375 C-8.729999542236328,56.358001708984375 -13.72700023651123,46.125999450683594 -19.836999893188477,43.994998931884766z"></path></g><g opacity="1" transform="matrix(1.2300000190734863,0,0,1.2300000190734863,120.44400024414062,37.47200012207031)"><path fill="rgb(245,244,246)" fill-opacity="1" d=" M-10.553000450134277,-0.7149999737739563 C-10.553000450134277,-0.7149999737739563 3.2300000190734863,-9.84000015258789 3.2300000190734863,-9.84000015258789 C3.2300000190734863,-9.84000015258789 10.553000450134277,8.739999771118164 10.553000450134277,8.739999771118164 C10.553000450134277,8.739999771118164 -7.132999897003174,9.84000015258789 -7.132999897003174,9.84000015258789 C-7.132999897003174,9.84000015258789 -10.553000450134277,-0.7149999737739563 -10.553000450134277,-0.7149999737739563z"></path></g><g opacity="1" transform="matrix(1.1699999570846558,0,0,1.1699999570846558,121.60900115966797,61.14899826049805)"><path fill="rgb(245,244,246)" fill-opacity="1" d=" M-9.095000267028809,-4.678999900817871 C-9.095000267028809,-4.678999900817871 9.095000267028809,-4.611000061035156 9.095000267028809,-4.611000061035156 C9.095000267028809,-4.611000061035156 8.442000389099121,4.678999900817871 8.442000389099121,4.678999900817871 C8.442000389099121,4.678999900817871 -8.942000389099121,4.613999843597412 -8.942000389099121,4.613999843597412 C-8.942000389099121,4.613999843597412 -9.095000267028809,-4.678999900817871 -9.095000267028809,-4.678999900817871z"></path></g><g opacity="1" transform="matrix(1.1699999570846558,0,0,1.1699999570846558,78.97599792480469,63.858001708984375)"><path stroke-linecap="butt" stroke-linejoin="miter" fill-opacity="0" stroke-miterlimit="10" stroke="rgb(0,0,0)" stroke-opacity="1" stroke-width="3" d=" M28.461000442504883,56.358001708984375 C9.71500015258789,25.895999908447266 -53.540000915527344,16.23200035095215 -53.540000915527344,16.23200035095215 C-53.540000915527344,16.23200035095215 -71.47699737548828,16.165000915527344 -71.47699737548828,16.165000915527344 C-71.47699737548828,16.165000915527344 -71.35399627685547,-16.91699981689453 -71.35399627685547,-16.91699981689453 C-71.35399627685547,-16.91699981689453 -53.41699981689453,-16.85099983215332 -53.41699981689453,-16.85099983215332 C-53.41699981689453,-16.85099983215332 9.907999992370605,-26.045000076293945 28.878999710083008,-56.358001708984375 C71.47699737548828,3.5889999866485596 28.461000442504883,56.358001708984375 28.461000442504883,56.358001708984375z"></path></g><g opacity="1" transform="matrix(1.1699999570846558,0,0,1.1699999570846558,110.0250015258789,63.814998626708984)"><path stroke-linecap="butt" stroke-linejoin="miter" fill-opacity="0" stroke-miterlimit="10" stroke="rgb(0,0,0)" stroke-opacity="1" stroke-width="3" d=" M-13.694999694824219,44.03799819946289 C-11.461999893188477,40.07400131225586 13.694999694824219,-2.378999948501587 -13.368000030517578,-44.03799819946289"></path></g><g opacity="1" transform="matrix(1.1699999570846558,0,0,1.1699999570846558,61.63999938964844,93.90599822998047)"><path fill="rgb(0,0,0)" fill-opacity="1" d=" M-52.529998779296875,-23.996999740600586 C-52.529998779296875,-23.996999740600586 -37.32600021362305,-23.940000534057617 -37.32600021362305,-23.940000534057617 C-37.32600021362305,-23.940000534057617 29.76300048828125,-19.658000946044922 52.5629997253418,12.696999549865723 C52.5629997253418,12.696999549865723 49.54800033569336,19.589000701904297 45.92499923706055,23.99799919128418 C45.92499923706055,23.99799919128418 28.601999282836914,-4.458000183105469 -36.428001403808594,-15.055000305175781 C-36.428001403808594,-15.055000305175781 -52.5620002746582,-15.230999946594238 -52.5620002746582,-15.230999946594238 C-52.5620002746582,-15.230999946594238 -52.529998779296875,-23.996999740600586 -52.529998779296875,-23.996999740600586z"></path></g><g opacity="1" transform="matrix(1.1699999570846558,0,0,1.1699999570846558,68.572998046875,64.36900329589844)"><path fill="rgb(107,109,113)" fill-opacity="1" d=" M34.19599914550781,49.89799880981445 C34.19599914550781,49.89799880981445 18.974000930786133,30.15399932861328 -26.236000061035156,20.61199951171875 C-26.236000061035156,20.61199951171875 -35.63800048828125,17.774999618530273 -46.016998291015625,17.113000869750977 C-48.520999908447266,16.954999923706055 -51.082000732421875,16.927000045776367 -53.57600021362305,17.084999084472656 C-53.57600021362305,17.084999084472656 -61.07699966430664,17.05699920654297 -61.07699966430664,17.05699920654297 C-61.07699966430664,17.05699920654297 -60.95399856567383,-16.024999618530273 -60.95399856567383,-16.024999618530273 C-60.95399856567383,-16.024999618530273 -42.81700134277344,-15.958000183105469 -42.81700134277344,-15.958000183105469 C-42.81700134277344,-15.958000183105469 14.315999984741211,-25.562999725341797 34.19499969482422,-48.74599838256836 C35.18299865722656,-49.89799880981445 35.46500015258789,-48.74100112915039 35.46500015258789,-48.74100112915039 C35.46500015258789,-48.74100112915039 61.077999114990234,6.834000110626221 34.19599914550781,49.89799880981445z"></path></g><g opacity="1" transform="matrix(1.0399999618530273,0,0,1.0399999618530273,116.16799926757812,63.858001708984375)"><path fill="rgb(201,201,221)" fill-opacity="1" d=" M-19.836999893188477,43.994998931884766 C-19.836999893188477,43.994998931884766 7.849999904632568,1.3029999732971191 -19.510000228881836,-44.08100128173828 C-19.510000228881836,-44.08100128173828 -8.312999725341797,-56.358001708984375 -8.312999725341797,-56.358001708984375 C-8.312999725341797,-56.358001708984375 19.836999893188477,-23.259000778198242 6.9730000495910645,24.232999801635742 C6.9730000495910645,24.232999801635742 -1.6699999570846558,48.784000396728516 -8.729999542236328,56.358001708984375 C-8.729999542236328,56.358001708984375 -13.72700023651123,46.125999450683594 -19.836999893188477,43.994998931884766z"></path></g><g opacity="1" transform="matrix(1.1699999570846558,0,0,1.1699999570846558,117.44400024414062,37.47200012207031)"><path fill="rgb(245,244,246)" fill-opacity="1" d=" M-10.553000450134277,-0.7149999737739563 C-10.553000450134277,-0.7149999737739563 3.2300000190734863,-9.84000015258789 3.2300000190734863,-9.84000015258789 C3.2300000190734863,-9.84000015258789 10.553000450134277,8.739999771118164 10.553000450134277,8.739999771118164 C10.553000450134277,8.739999771118164 -7.132999897003174,9.84000015258789 -7.132999897003174,9.84000015258789 C-7.132999897003174,9.84000015258789 -10.553000450134277,-0.7149999737739563 -10.553000450134277,-0.7149999737739563z"></path></g><g opacity="1" transform="matrix(1.1699999570846558,0,0,1.1699999570846558,117.60900115966797,61.14899826049805)"><path fill="rgb(245,244,246)" fill-opacity="1" d=" M-9.095000267028809,-4.678999900817871 C-9.095000267028809,-4.678999900817871 9.095000267028809,-4.611000061035156 9.095000267028809,-4.611000061035156 C9.095000267028809,-4.611000061035156 8.442000389099121,4.678999900817871 8.442000389099121,4.678999900817871 C8.442000389099121,4.678999900817871 -8.942000389099121,4.613999843597412 -8.942000389099121,4.613999843597412 C-8.942000389099121,4.613999843597412 -9.095000267028809,-4.678999900817871 -9.095000267028809,-4.678999900817871z"></path></g><g opacity="1" transform="matrix(1.1699999570846558,0,0,1.1699999570846558,78.97599792480469,63.858001708984375)"><path stroke-linecap="butt" stroke-linejoin="miter" fill-opacity="0" stroke-miterlimit="10" stroke="rgb(0,0,0)" stroke-opacity="1" stroke-width="3" d=" M28.461000442504883,56.358001708984375 C9.71500015258789,25.895999908447266 -53.540000915527344,16.23200035095215 -53.540000915527344,16.23200035095215 C-53.540000915527344,16.23200035095215 -71.47699737548828,16.165000915527344 -71.47699737548828,16.165000915527344 C-71.47699737548828,16.165000915527344 -71.35399627685547,-16.91699981689453 -71.35399627685547,-16.91699981689453 C-71.35399627685547,-16.91699981689453 -53.41699981689453,-16.85099983215332 -53.41699981689453,-16.85099983215332 C-53.41699981689453,-16.85099983215332 9.907999992370605,-26.045000076293945 28.878999710083008,-56.358001708984375 C71.47699737548828,3.5889999866485596 28.461000442504883,56.358001708984375 28.461000442504883,56.358001708984375z"></path></g><g opacity="1" transform="matrix(1.2000000476837158,0,0,1.2000000476837158,110.0250015258789,63.814998626708984)"><path stroke-linecap="butt" stroke-linejoin="miter" fill-opacity="0" stroke-miterlimit="10" stroke="rgb(0,0,0)" stroke-opacity="1" stroke-width="3" d=" M-13.694999694824219,44.03799819946289 C-11.461999893188477,40.07400131225586 13.694999694824219,-2.378999948501587 -13.368000030517578,-44.03799819946289"></path></g><g opacity="1" transform="matrix(1.1799999475479126,0,0,1.1799999475479126,61.63999938964844,93.90599822998047)"><path fill="rgb(0,0,0)" fill-opacity="1" d=" M-52.529998779296875,-23.996999740600586 C-52.529998779296875,-23.996999740600586 -37.32600021362305,-23.940000534057617 -37.32600021362305,-23.940000534057617 C-37.32600021362305,-23.940000534057617 29.76300048828125,-19.658000946044922 52.5629997253418,12.696999549865723 C52.5629997253418,12.696999549865723 49.54800033569336,19.589000701904297 45.92499923706055,23.99799919128418 C45.92499923706055,23.99799919128418 28.601999282836914,-4.458000183105469 -36.428001403808594,-15.055000305175781 C-36.428001403808594,-15.055000305175781 -52.5620002746582,-15.230999946594238 -52.5620002746582,-15.230999946594238 C-52.5620002746582,-15.230999946594238 -52.529998779296875,-23.996999740600586 -52.529998779296875,-23.996999740600586z"></path></g></g></g><g clip-path="url(#__lottie_element_6119)" transform="matrix(0.9995752573013306,0.029142871499061584,-0.029142871499061584,0.9995752573013306,14.9168701171875,-14.48828125)" opacity="1" style="display: block;"><g transform="matrix(-0.5149333477020264,0.8572302460670471,-0.8572302460670471,-0.5149333477020264,357.5799865722656,255.82699584960938)" opacity="1" style="display: block;"><g opacity="1" transform="matrix(1,0,0,1,0,0)"><path stroke-linecap="round" stroke-linejoin="miter" fill-opacity="0" stroke-miterlimit="4" stroke="rgb(245,164,78)" stroke-opacity="1" stroke-width="40" d="M0 0"></path></g></g><g transform="matrix(0.9051018357276917,0.4251948893070221,-0.4251948893070221,0.9051018357276917,454.9909973144531,291.552001953125)" opacity="1" style="display: block;"><g opacity="1" transform="matrix(1,0,0,1,0,0)"><path stroke-linecap="round" stroke-linejoin="miter" fill-opacity="0" stroke-miterlimit="4" stroke="rgb(245,164,78)" stroke-opacity="1" stroke-width="40" d="M0 0"></path></g><g opacity="1" transform="matrix(1,0,0,1,0,0)"><path stroke-linecap="butt" stroke-linejoin="miter" fill-opacity="0" stroke-miterlimit="4" stroke="rgb(245,164,78)" stroke-opacity="1" stroke-width="40" d=" M-241.29400634765625,-88.49800109863281"></path></g></g><g transform="matrix(-0.8356444239616394,-0.5492708086967468,0.5492708086967468,-0.8356444239616394,496.1619873046875,333.9209899902344)" opacity="1" style="display: block;"><g opacity="1" transform="matrix(1,0,0,1,0,0)"><path stroke-linecap="round" stroke-linejoin="miter" fill-opacity="0" stroke-miterlimit="4" stroke="rgb(245,164,78)" stroke-opacity="1" stroke-width="40" d="M0 0"></path></g></g><g transform="matrix(0.5228854417800903,-0.8524029850959778,0.8524029850959778,0.5228854417800903,412.8890075683594,325.3580017089844)" opacity="1" style="display: block;"><g opacity="1" transform="matrix(1,0,0,1,0,0)"><path stroke-linecap="round" stroke-linejoin="miter" fill-opacity="0" stroke-miterlimit="4" stroke="rgb(245,164,77)" stroke-opacity="1" stroke-width="40" d="M0 0"></path></g></g></g><g clip-path="url(#__lottie_element_6123)" transform="matrix(0.9995752573013306,0.029142871499061584,-0.029142871499061584,0.9995752573013306,-85.65414428710938,-64.7742919921875)" opacity="1" style="display: block;"><g transform="matrix(-0.5149333477020264,0.8572302460670471,-0.8572302460670471,-0.5149333477020264,357.5799865722656,255.82699584960938)" opacity="1" style="display: block;"><g opacity="1" transform="matrix(1,0,0,1,0,0)"><path stroke-linecap="round" stroke-linejoin="miter" fill-opacity="0" stroke-miterlimit="4" stroke="rgb(245,164,78)" stroke-opacity="1" stroke-width="40" d="M0 0"></path></g></g><g transform="matrix(0.9051018357276917,0.4251948893070221,-0.4251948893070221,0.9051018357276917,454.9909973144531,291.552001953125)" opacity="1" style="display: block;"><g opacity="1" transform="matrix(1,0,0,1,0,0)"><path stroke-linecap="round" stroke-linejoin="miter" fill-opacity="0" stroke-miterlimit="4" stroke="rgb(245,164,78)" stroke-opacity="1" stroke-width="40" d="M0 0"></path></g><g opacity="1" transform="matrix(1,0,0,1,0,0)"><path stroke-linecap="butt" stroke-linejoin="miter" fill-opacity="0" stroke-miterlimit="4" stroke="rgb(245,164,78)" stroke-opacity="1" stroke-width="40" d=" M-241.29400634765625,-88.49800109863281"></path></g></g><g transform="matrix(-0.8356444239616394,-0.5492708086967468,0.5492708086967468,-0.8356444239616394,496.1619873046875,333.9209899902344)" opacity="1" style="display: block;"><g opacity="1" transform="matrix(1,0,0,1,0,0)"><path stroke-linecap="round" stroke-linejoin="miter" fill-opacity="0" stroke-miterlimit="4" stroke="rgb(245,164,78)" stroke-opacity="1" stroke-width="40" d="M0 0"></path></g></g><g transform="matrix(0.5228854417800903,-0.8524029850959778,0.8524029850959778,0.5228854417800903,412.8890075683594,325.3580017089844)" opacity="1" style="display: block;"><g opacity="1" transform="matrix(1,0,0,1,0,0)"><path stroke-linecap="round" stroke-linejoin="miter" fill-opacity="0" stroke-miterlimit="4" stroke="rgb(245,164,77)" stroke-opacity="1" stroke-width="40" d="M0 0"></path></g></g></g></g></svg>