<?xml version="1.0" encoding="UTF-8"?>
<svg id="Layer_1" xmlns="http://www.w3.org/2000/svg" version="1.1" xmlns:xlink="http://www.w3.org/1999/xlink" viewBox="0 0 559.15 486.59">
  <!-- Generator: Adobe Illustrator 29.6.1, SVG Export Plug-In . SVG Version: 2.1.1 Build 9)  -->
  <defs>
    <style>
      .st0 {
        stroke: #b5b7ba;
        stroke-width: 7.31px;
      }

      .st0, .st1 {
        fill: none;
        stroke-linecap: round;
        stroke-linejoin: round;
      }

      .st2 {
        fill: #a6a7ab;
      }

      .st3 {
        fill: #e5e2e8;
      }

      .st4 {
        fill: url(#radial-gradient1);
        stroke-width: 3px;
      }

      .st4, .st5 {
        stroke: #a19977;
        stroke-miterlimit: 10;
      }

      .st6 {
        fill: #808285;
      }

      .st5 {
        fill: url(#radial-gradient);
        stroke-width: 4px;
      }

      .st7 {
        fill: #b5b5b6;
      }

      .st1 {
        stroke: #747578;
        stroke-width: 6px;
      }

      .st8 {
        fill: #a9a8a8;
      }

      .st9 {
        fill: url(#linear-gradient);
      }
    </style>
    <radialGradient id="radial-gradient" cx="264.69" cy="245" fx="264.69" fy="245" r="233.28" gradientUnits="userSpaceOnUse">
      <stop offset=".09" stop-color="#631f1f"/>
      <stop offset=".28" stop-color="#4b1919"/>
      <stop offset=".62" stop-color="#311414"/>
      <stop offset=".8" stop-color="#221010"/>
      <stop offset="1" stop-color="#130c0d"/>
    </radialGradient>
    <radialGradient id="radial-gradient1" cx="264.69" cy="245" fx="264.69" fy="245" r="226.45" gradientUnits="userSpaceOnUse">
      <stop offset=".09" stop-color="#4260ac"/>
      <stop offset=".23" stop-color="#344687"/>
      <stop offset=".39" stop-color="#222659"/>
      <stop offset=".62" stop-color="#191e49"/>
      <stop offset=".87" stop-color="#14111e"/>
      <stop offset="1" stop-color="#130c0d"/>
    </radialGradient>
    <linearGradient id="linear-gradient" x1="266.76" y1="246.42" x2="369.89" y2="246.42" gradientUnits="userSpaceOnUse">
      <stop offset=".09" stop-color="#d7d7d7"/>
      <stop offset=".28" stop-color="#d7d7d7"/>
      <stop offset=".62" stop-color="#cdced5"/>
      <stop offset=".8" stop-color="#b7b6bc"/>
      <stop offset="1" stop-color="#9b9698"/>
    </linearGradient>
  </defs>
  <circle class="st5" cx="264.69" cy="245" r="233.28"/>
  <circle class="st4" cx="264.69" cy="245" r="226.45"/>
  <g>
    <path class="st3" d="M266.93,389.7l-.17-17.75-.41-.05.41.05c37.43-22.68,70.35-54.5,89-94.55,18.89-40.56,12.28-83.92,14.13-127.03h0c-32.03,2.46-64.64-7.95-92.07-24.24-2.94-1.75-6.95-5.49-9.67-6.58-.43-.17-.73,1.24-1.22,1.18l-.68-18.33c4.94,5.58,10.62,5.08,13.67,7.02,22.2,14.17,46.7,23.5,72.99,25.92,11.13,1.03,21.62-.23,32.67.07h0c-2.31,31.9,1.47,64.79-1.8,96.66-7.11,69.35-58.02,124.48-116.85,157.61Z"/>
    <path class="st2" d="M374.51,140.23c7.11-2.14,8.24,7.42,2.94,8.39s-6.29-7.38-2.94-8.39Z"/>
    <path class="st6" d="M266.82,103.04l.05,15.83c-27.55,18.92-60.38,31.2-93.92,32.18-1.88.05-9.3-1.18-9.6.13,2.55,34.28-3.21,69.48,5.99,103.15,13.92,50.94,52.88,90.68,97,117.57l.41.05.17,17.75c-57.37-31.55-108.68-86.82-116.88-153.83-3.75-30.6-1.14-64.99-1.43-96.06-.01-1.46-1.71-4.95-.22-5.38,36.55,5.24,73.1-4.8,104.25-24.23,3.04-1.9,7.54-5.29,9.44-6,.6-.22,1.75-.66,1.98-.58.51.18,2.78-1.12,2.75-.58Z"/>
    <path class="st2" d="M154.71,140.23c7.08-2.15,7.85,7.73,2.52,8.39s-6.09-7.31-2.52-8.39Z"/>
    <path class="st7" d="M269.1,156.96c-1.36.83-1.6,2.01-1.23,3.42h-.31c-.28,9.3-.15,123.27-.44,132.57"/>
    <path class="st8" d="M274.97,293.04l-7.11,78.24c-43.68-26.9-83.27-66.7-97.05-117.64-9.11-33.67-7.31-67.09-7.31-101.33.29-1.31,9.02-1.89,10.88-1.95,33.2-.98,19.61-1.47,47.06-8.32.48.06,46.16-23.89,46.59-23.71-.15,1.47,1.39,3.27-.63,2.96"/>
    <path class="st9" d="M369.89,216.5c-5.1,44.81-14.13,60.9-14.13,60.9l-12.74,22.9-11.92,13.74c-10.91,15.17-23.73,27.76-23.73,27.76l-40.61,30.31.17-251.36,28.28,14.57,13.63,4.61s6.15,4.39,24.66,8.08c2.63-1.19,21.38,2.62,21.38,2.62l15.01-.24"/>
    <path class="st0" d="M385.58,135.44c-11.05-.3-21.54.95-32.67-.07-26.29-2.42-50.79-11.75-72.99-25.92-3.04-1.94-7.33-4.46-9.79-5.35-.85-.31-2.8-.72-3.99-.27-1.9.71-10.44,4.49-13.48,6.38-31.15,19.43-67.7,29.48-104.25,24.23.08,2.17.21,3.93.22,5.38.28,31.07-2.32,65.46,1.43,96.06,8.2,67.01,59.51,122.29,116.88,153.83,58.83-33.12,109.74-88.26,116.85-157.61,3.27-31.87-.52-64.76,1.8-96.66h0Z"/>
    <path class="st1" d="M369.89,150.37c-32.03,2.46-64.64-7.95-92.07-24.24-2.94-1.75-6.95-5.49-9.67-6.58-.43-.17-.79-.63-1.28-.69-27.55,18.92-60.38,31.2-93.92,32.18-1.88.05-9.3-1.18-9.6.13,2.55,34.28-3.21,69.48,5.99,103.15,13.92,50.94,52.88,90.68,97,117.57l.41.05c37.43-22.68,70.35-54.5,89-94.55,18.89-40.56,12.28-83.92,14.13-127.03h0Z"/>
  </g>
</svg>